<svg height='100px' width='100px'  fill="#848484" xmlns:x="http://ns.adobe.com/Extensibility/1.0/" xmlns:i="http://ns.adobe.com/AdobeIllustrator/10.0/" xmlns:graph="http://ns.adobe.com/Graphs/1.0/" xmlns="http://www.w3.org/2000/svg" xmlns:xlink="http://www.w3.org/1999/xlink" version="1.1" x="0px" y="0px" viewBox="0 0 100 100" style="enable-background:new 0 0 100 100;" xml:space="preserve"><g><g i:extraneous="self"><g><path d="M97.2,78.3c-2.9-5-5.3-12.5-6.8-17.7c0.9-2,1.6-4.3,1.6-7.6c0-6.4-1-10.3-3.2-12.3c-0.4-0.4-1-0.7-1.5-1     C85.6,19.5,69.7,3.9,50,3.9c-19.6,0-35.6,15.6-37.2,35.7c-0.5,0.3-1,0.5-1.3,0.9C9.1,42.7,8.1,46.6,8.1,53c0,3.3,0.7,5.6,1.6,7.6     c-1.5,5.2-3.9,12.7-6.8,17.7c-0.6,1.1-0.4,2.7,0.7,3.3c5.9,3.4,15.9,5.6,25.1,6.9c6,4.8,13.4,7.6,21.4,7.6     c7.9,0,15.3-2.8,21.3-7.6c9.2-1.3,19.2-3.4,25.1-6.8C97.6,81,97.8,79.4,97.2,78.3z M49.9,90c-14.1,0-26.5-11-29.3-26.1     c-0.2-1.2-1.2-2.1-2.3-2.4c-0.4-0.1-4.2-1.3-4.2-8.5c0-6.2,1.1-7.7,1.6-8.2c0.1-0.1,0.3-0.1,0.5-0.1c1.1,2.2,2.7,5.6,3.3,9.3     c5.9-8.4,6.4-17,7.2-23.9l2.2,5.5c0.4,0.9,1.3,1.6,2.3,1.6h37.6c1,0,1.9-0.6,2.3-1.6l2.2-5.5c0.8,6.9,1.3,15.5,7.2,23.9     c0.5-3.7,2.2-7,3.2-9.3c0.2,0.1,0.5,0,0.7,0.2c0.3,0.3,1.5,1.9,1.5,8.1c0,7.2-3.8,8.4-4.1,8.5c-1.2,0.3-2.1,1.2-2.4,2.4     C76.5,79,64.2,90,49.9,90z"></path><circle cx="38.9" cy="50.6" r="5.3"></circle><circle cx="61.1" cy="50.6" r="5.3"></circle><path d="M59.6,68.5H40.4c-0.7,0-1.3,0.6-1.2,1.4c0.7,5.4,5.2,9.5,10.8,9.5s10.1-4.1,10.8-9.5C60.9,69.1,60.3,68.5,59.6,68.5z"></path></g></g></g></svg>