<svg height='100px' width='100px'  fill="#ec7b47" xmlns="http://www.w3.org/2000/svg" xmlnsXlink="http://www.w3.org/1999/xlink" version="1.1" x="0px" y="0px" viewBox="0 0 100 100" enable-background="new 0 0 100 100" xmlSpace="preserve"><path d="M50,20c16.569,0,30,13.431,30,30S66.569,80,50,80S20,66.569,20,50S33.431,20,50,20 M50,15  c-19.299,0-35,15.701-35,35s15.701,35,35,35s35-15.701,35-35S69.299,15,50,15L50,15z"></path><circle cx="62" cy="43.999" r="5"></circle><circle cx="38.002" cy="43.999" r="5"></circle><path d="M65.415,63.999h-30.83c-1.381,0-2.5-1.119-2.5-2.5s1.119-2.5,2.5-2.5h30.83c1.381,0,2.5,1.119,2.5,2.5  S66.796,63.999,65.415,63.999z"></path></svg>