<svg height='100px' width='100px'  fill="#ec7b47" xmlns="http://www.w3.org/2000/svg" xmlns:xlink="http://www.w3.org/1999/xlink" version="1.1" x="0px" y="0px" viewBox="-255 347 100 100" style="enable-background:new -255 347 100 100;" xml:space="preserve"><g><path d="M-205,367c16.6,0,30,13.4,30,30s-13.4,30-30,30s-30-13.4-30-30S-221.6,367-205,367 M-205,362   c-19.3,0-35,15.7-35,35s15.7,35,35,35s35-15.7,35-35S-185.7,362-205,362L-205,362z"></path><circle cx="-193" cy="391" r="5"></circle><circle cx="-217" cy="391" r="5"></circle><circle cx="-193" cy="391" r="5"></circle><circle cx="-217" cy="391" r="5"></circle><path d="M-196.7,413.7c-4.7,0-9.1-2.8-9.3-2.9c0,0-3.5-2.1-6.7-2.1s-6.6,2.1-6.7,2.1c-1.2,0.7-2.7,0.4-3.4-0.8   c-0.7-1.2-0.4-2.7,0.8-3.4c0.2-0.1,4.7-2.9,9.3-2.9s9.1,2.8,9.3,2.9c0,0,3.5,2.1,6.7,2.1s6.6-2.1,6.7-2.1c1.2-0.7,2.7-0.4,3.4,0.8   c0.7,1.2,0.4,2.7-0.8,3.4C-187.6,410.9-192,413.7-196.7,413.7z"></path></g></svg>