<svg height='100px' width='100px'  fill="#ec7b47" xmlns="http://www.w3.org/2000/svg" xmlnsXlink="http://www.w3.org/1999/xlink" version="1.1" x="0px" y="0px" viewBox="0 0 100 100" enable-background="new 0 0 100 100" xmlSpace="preserve"><path d="M50,20c16.569,0,30,13.431,30,30S66.569,80,50,80S20,66.569,20,50S33.431,20,50,20 M50,15  c-19.299,0-35,15.701-35,35s15.701,35,35,35s35-15.701,35-35S69.299,15,50,15L50,15z"></path><path d="M50,60.152c4.38,0,8.386,1.97,11.031,5.242H38.969C41.614,62.122,45.62,60.152,50,60.152 M50,55.152  c-8.088,0-15.007,5.002-17.834,12.082c-0.604,1.513,0.516,3.16,2.145,3.16h31.378c1.629,0,2.749-1.647,2.145-3.16  C65.007,60.155,58.088,55.152,50,55.152L50,55.152z"></path><g><path d="M43.77,38.231c-0.976-0.977-2.56-0.977-3.535,0l-2.232,2.232l-2.232-2.232c-0.976-0.977-2.56-0.977-3.535,0   c-0.977,0.977-0.977,2.559,0,3.535l2.232,2.232l-2.232,2.232c-0.977,0.977-0.977,2.559,0,3.535   c0.488,0.488,1.128,0.732,1.768,0.732s1.28-0.244,1.768-0.732l2.232-2.232l2.232,2.232c0.488,0.488,1.128,0.732,1.768,0.732   s1.28-0.244,1.768-0.732c0.977-0.977,0.977-2.559,0-3.535l-2.232-2.232l2.232-2.232C44.746,40.79,44.746,39.208,43.77,38.231z"></path><path d="M65.533,43.999l2.232-2.232c0.977-0.977,0.977-2.559,0-3.535c-0.976-0.977-2.56-0.977-3.535,0l-2.232,2.232l-2.232-2.232   c-0.976-0.977-2.56-0.977-3.535,0c-0.977,0.977-0.977,2.559,0,3.535l2.232,2.232l-2.232,2.232c-0.977,0.977-0.977,2.559,0,3.535   c0.488,0.488,1.128,0.732,1.768,0.732s1.28-0.244,1.768-0.732l2.232-2.232l2.232,2.232c0.488,0.488,1.128,0.732,1.768,0.732   s1.28-0.244,1.768-0.732c0.977-0.977,0.977-2.559,0-3.535L65.533,43.999z"></path></g></svg>