<svg height='100px' width='100px'  fill="#ec7b47" xmlns="http://www.w3.org/2000/svg" xmlns:xlink="http://www.w3.org/1999/xlink" version="1.1" x="0px" y="0px" viewBox="-255 347 100 100" style="enable-background:new -255 347 100 100;" xml:space="preserve"><g><path d="M-205,367c16.6,0,30,13.4,30,30s-13.4,30-30,30s-30-13.4-30-30S-221.6,367-205,367 M-205,362   c-19.3,0-35,15.7-35,35s15.7,35,35,35s35-15.7,35-35S-185.7,362-205,362L-205,362z"></path><circle cx="-193" cy="391" r="5"></circle><circle cx="-217" cy="391" r="5"></circle><path d="M-192.2,414.3c-0.1,0-0.3,0-0.4,0l-25.6-4.3c-1.4-0.2-2.3-1.5-2-2.9c0.2-1.4,1.5-2.3,2.9-2l25.6,4.3c1.4,0.2,2.3,1.5,2,2.9   C-189.9,413.5-191,414.3-192.2,414.3z"></path></g></svg>