<svg height='100px' width='100px'  fill="#848484" xmlns="http://www.w3.org/2000/svg" xmlns:xlink="http://www.w3.org/1999/xlink" version="1.1" x="0px" y="0px" viewBox="0 0 78.8 99" style="enable-background:new 0 0 78.8 99;" xml:space="preserve"><path d="M26.5,26.3c0.2,0.1,0.4,0.1,0.6,0.1c0.2,0,0.4-0.1,0.6-0.2c4-2.1,5.5-4.9,6-6.4c0.5-1.4,0.3-2.9-0.5-4c-0.8-1-2-1.6-3.3-1.6  c0,0,0,0,0,0c-1.1,0-2.1,0.4-2.8,1.1c-0.8-0.7-1.8-1.1-2.8-1.1c0,0,0,0,0,0c-1.3,0-2.5,0.6-3.3,1.6c-0.8,1.1-1,2.6-0.5,4  C21,21.4,22.5,24.2,26.5,26.3z M23,17.5c0.3-0.4,0.7-0.6,1.2-0.6c0,0,0,0,0,0c0.4,0,0.8,0.2,1.1,0.4c0.3,0.3,0.4,0.7,0.4,1.1  c0,0.7,0.6,1.3,1.3,1.3c0,0,0,0,0,0c0.7,0,1.3-0.6,1.3-1.3c0,0,0,0,0,0c0-0.8,0.7-1.5,1.5-1.5c0,0,0,0,0,0c0.5,0,0.9,0.2,1.2,0.6  c0.3,0.4,0.3,0.9,0.1,1.5c-0.4,1.1-1.4,3-4.1,4.6c-2.7-1.6-3.8-3.6-4.2-4.6C22.7,18.4,22.8,17.8,23,17.5z"></path><path d="M61.4,22.1c0.1,0,0.3,0,0.4,0c0.6,0,1.2-0.2,1.7-0.6c1.2-0.9,1.5-2.7,0.5-4c-0.9-1.2-2.7-1.5-4-0.5c-0.6,0.5-1,1.1-1.1,1.9  c-0.1,0.7,0.1,1.5,0.6,2.1C59.9,21.6,60.6,22,61.4,22.1z M61.2,18.6c0.1-0.1,0.3-0.2,0.5-0.2c0.2,0,0.5,0.1,0.7,0.3  c0.3,0.4,0.2,0.9-0.2,1.2c-0.2,0.1-0.4,0.2-0.6,0.2c-0.2,0-0.4-0.1-0.5-0.3c0,0,0,0,0,0c-0.1-0.2-0.2-0.4-0.2-0.6  C60.9,19,61.1,18.8,61.2,18.6z"></path><ellipse transform="matrix(0.7578 -0.6525 0.6525 0.7578 -2.6933 35.9611)" cx="47.1" cy="21.6" rx="1.3" ry="1.3"></ellipse><path d="M54.1,21.2c0,0,0.1,0,0.1,0l1.4-0.2l0.3,2.1c0,0.4,0.3,0.7,0.6,0.8l1.5,0.6c-0.1,0.1-0.3,0.2-0.4,0.4l-0.4,0.6  c-0.4,0.6-0.2,1.5,0.4,1.8c0.2,0.1,0.5,0.2,0.7,0.2c0.2,0,0.5-0.1,0.7-0.2c0.3-0.1,0.5-0.3,0.7-0.6l0.5-1.3l1.9,0.8  c0.1,0.1,0.3,0.1,0.4,0.1c0.2,0,0.4-0.1,0.6-0.2l1.7-1.3c0,0,0,0,0,0l0.9,1.1c0.2,0.3,0.5,0.4,0.8,0.4c0.2,0,0.4-0.1,0.6-0.2  c0.4-0.3,0.5-1,0.2-1.4l-0.9-1.1c0,0,0,0,0,0l1.6-1.2c0.3-0.2,0.4-0.6,0.4-0.9l-0.3-2.1c0,0,0.1,0,0.1,0l1.4-0.2  c0.6-0.1,0.9-0.6,0.9-1.1c-0.1-0.6-0.6-0.9-1.1-0.9l-1.4,0.2c0,0-0.1,0-0.1,0l-0.3-2c0-0.4-0.3-0.7-0.6-0.8l-1.9-0.8c0,0,0,0,0-0.1  l0.5-1.3c0.2-0.5,0-1.1-0.5-1.3c-0.5-0.2-1.1,0-1.3,0.5L63.3,13c0,0,0,0.1,0,0.1l-2-0.8c-0.3-0.1-0.7-0.1-1,0.1l-1.6,1.2  c0,0,0,0,0,0l-0.9-1.1c-0.3-0.4-1-0.5-1.4-0.2c-0.4,0.3-0.5,1-0.2,1.4l0.9,1.1c0,0,0,0,0,0l-1.7,1.3c-0.3,0.2-0.4,0.6-0.4,0.9l0.3,2  L54,19.2c-0.6,0.1-0.9,0.6-0.9,1.1C53.2,20.9,53.6,21.2,54.1,21.2z M61.1,14.4l4.6,1.9l0.6,4.9l-4,3l-4.6-1.9l-0.6-4.9L61.1,14.4z"></path><path d="M42.4,21l0.5,0.2l-0.3,0.8c-0.1,0.3,0,0.7,0.2,1l0.5,0.6L43,23.8c-0.4,0.4-0.5,1-0.1,1.4c0.2,0.2,0.5,0.3,0.8,0.3  c0.2,0,0.5-0.1,0.7-0.2l0.4-0.3l0.6,0.7c0.2,0.2,0.5,0.3,0.8,0.3c0.1,0,0.1,0,0.2,0l0.8-0.2l0.1,0.4c0.1,0.5,0.5,0.8,1,0.8  c0.1,0,0.1,0,0.2,0c0.5-0.1,0.9-0.6,0.8-1.2l-0.1-0.4l0.8-0.2c0.4-0.1,0.6-0.3,0.8-0.7l0.3-0.8l0.4,0.1c0.1,0,0.2,0.1,0.3,0.1  c0.4,0,0.8-0.3,0.9-0.7c0.2-0.5-0.1-1.1-0.6-1.3L51.5,22l0.3-0.8c0.1-0.3,0-0.7-0.2-1L51,19.6l0.4-0.3c0.4-0.4,0.5-1,0.1-1.4  c-0.4-0.4-1-0.5-1.4-0.1l-0.4,0.3l-0.5-0.6c-0.2-0.3-0.6-0.4-0.9-0.3l-0.8,0.2l-0.1-0.5c-0.1-0.5-0.6-0.9-1.2-0.8  c-0.5,0.1-0.9,0.6-0.8,1.2l0.1,0.5l-0.8,0.2c-0.4,0.1-0.6,0.3-0.8,0.7l-0.3,0.8l-0.5-0.2c-0.5-0.2-1.1,0.1-1.3,0.6  C41.6,20.2,41.9,20.8,42.4,21z M45.5,19.7l2.5-0.5l1.6,1.9l-0.8,2.4L46.4,24l-1.6-1.9L45.5,19.7z"></path><ellipse transform="matrix(0.4431 -0.8965 0.8965 0.4431 32.7985 64.011)" cx="67.9" cy="5.6" rx="1.3" ry="1.3"></ellipse><path d="M63.4,4.5l0.4,0.2l-0.4,0.8c-0.2,0.3-0.1,0.7,0.1,1l0.4,0.7l-0.3,0.2c-0.5,0.3-0.6,0.9-0.3,1.4c0.2,0.3,0.5,0.4,0.8,0.4  c0.2,0,0.4-0.1,0.6-0.2L65,8.8l0.5,0.7C65.7,9.8,66,10,66.3,10c0,0,0,0,0.1,0l0.9-0.1l0,0.4c0,0.5,0.5,0.9,1,0.9c0,0,0,0,0.1,0  c0.6,0,1-0.5,0.9-1.1l0-0.4l0.8-0.1c0.4,0,0.7-0.2,0.8-0.6l0.4-0.8l0.4,0.2c0.1,0.1,0.3,0.1,0.4,0.1c0.4,0,0.7-0.2,0.9-0.6  c0.2-0.5,0-1.1-0.5-1.3l-0.4-0.2l0.3-0.7c0.2-0.3,0.1-0.7-0.1-1L72,4.2l0.4-0.3C72.9,3.6,73,3,72.7,2.5c-0.3-0.5-0.9-0.6-1.4-0.3  l-0.4,0.3l-0.4-0.7c-0.2-0.3-0.5-0.5-0.9-0.4l-0.8,0.1l0-0.5c0-0.6-0.6-1-1.1-0.9c-0.6,0-1,0.5-0.9,1.1l0,0.5l-0.9,0.1  c-0.4,0-0.7,0.2-0.8,0.6l-0.3,0.7l-0.4-0.2c-0.5-0.2-1.1,0-1.3,0.5C62.7,3.6,62.9,4.2,63.4,4.5z M66.6,3.6l2.5-0.2l1.4,2.1l-1.1,2.3  l-2.5,0.2l-1.4-2.1L66.6,3.6z"></path><path d="M36.8,66.7c-0.6,0.8-1,2-1.3,3.4c-0.3,1.6,0.1,3.3,1.1,4.6l0.5,0.6c1.4,1.9,3.5,3.3,5.8,3.8l2.4,0.6c0.1,0,0.2,0,0.3,0  c0.6,0,1.1-0.4,1.3-1c0.2-0.7-0.3-1.4-1-1.6l-2.4-0.6c-1.7-0.4-3.3-1.4-4.3-2.9l-0.5-0.6c-0.5-0.7-0.8-1.6-0.6-2.5  c0.2-1.1,0.5-1.9,0.8-2.4c0.5-0.7,2.1-0.3,2.5-0.1c0.7,0.3,1.5-0.1,1.7-0.8c0.3-0.7-0.1-1.5-0.8-1.7C41.1,65,38.3,64.6,36.8,66.7z"></path><path d="M65.9,65.2c0.3-1.7,1-6.6-0.1-10.6c-0.4-1.3-0.7-2.4-2.2-4c0.2,0.1,0.4,0.2,0.6,0.2c0.2,0,0.3,0,0.5-0.1l1.3-0.5  c0,0,0,0,0,0l0.4-0.1c0.7-0.3,1-1,0.8-1.7c-0.3-0.7-1-1.1-1.7-0.8l-1.3,0.5c0,0,0,0,0,0l-0.3,0.1c-0.7,0.3-1,1-0.8,1.7  c0,0,0,0.1,0.1,0.1c0,0-0.1-0.1-0.1-0.1c-0.4-0.4-1.1-0.5-1.6-0.2c-0.3-0.2-0.8-0.3-1.2-0.2l-1.3,0.5c0,0,0,0,0,0l-0.1,0  c-0.7,0.3-1,1-0.8,1.7c0.2,0.5,0.7,0.9,1.3,0.9c0.2,0,0.3,0,0.5-0.1l1.3-0.5c0,0,0,0,0,0l0.1,0c0.1,0,0.1,0,0.2-0.1  c1.4,1.4,1.6,2.2,2,3.5c1.2,4,0,9.7,0,9.8c-0.1,0.3,0,0.7,0.2,1l4.3,6.8l-2.4,2.1c-0.3,0.3-0.5,0.7-0.4,1.1c0,0.4,0.2,0.8,0.5,1  l1.6,1.2c0.1,0.1,0.1,0.2,0.1,0.2c0,0.1,0,0.2-0.1,0.3l-1.2,1.1c-0.3,0.3-0.5,0.7-0.4,1.1c0,0.4,0.3,0.8,0.7,1l0.7,0.4  c0.3,0.2,0.4,0.5,0.4,0.8l0,1c0,0.3-0.2,0.7-0.6,0.8c-1.2,0.5-2.1,1.6-2.2,2.9l-0.2,1.5c0,0.3-0.3,0.6-0.6,0.7l-1.7,0.6  c-0.1,0-0.2,0-0.3,0h-6.6c-1.1,0-2.2,0.5-2.9,1.5l-2.9,4H28.8l3.9-9.8c0.2-0.5,0.1-1-0.2-1.4C21.7,72.9,17.8,62,21.2,53.7  c0,0,0,0,0,0c0.1,0.1,0.2,0.1,0.3,0.1l0.2,0.1c0,0,0,0,0,0l0.4,0.2l0.7,0.2c0,0,0,0,0,0l0.2,0.1c0.2,0.1,0.3,0.1,0.5,0.1  c0.5,0,1.1-0.3,1.3-0.9c0.3-0.7-0.1-1.5-0.8-1.7l-1-0.4l-0.5-0.2c-0.7-0.3-1.4,0.1-1.7,0.8c-0.1,0-0.1-0.1-0.2-0.1  c-0.7-0.3-1.5,0-1.7,0.7c-2.7,6.4-2.9,17.4,11.1,33.7l-4.3,10.8c-0.2,0.4-0.1,0.9,0.1,1.2c0.2,0.4,0.7,0.6,1.1,0.6h23.3  c0.4,0,0.8-0.2,1.1-0.6l3.3-4.6c0.2-0.2,0.4-0.4,0.7-0.4h6.6c0.4,0,0.8-0.1,1.2-0.2l1.7-0.6c1.3-0.5,2.2-1.6,2.4-3l0.2-1.5  c0-0.3,0.2-0.6,0.6-0.7c1.3-0.5,2.2-1.8,2.3-3.2l0-1c0-1-0.3-2-1-2.6c0.6-0.6,0.9-1.4,0.9-2.3c-0.1-0.9-0.5-1.7-1.2-2.2L68.3,76  l2-1.8c0.5-0.4,0.6-1.2,0.2-1.7L65.9,65.2z"></path><path d="M8.6,46.2l-1.3-0.5c-0.1,0-0.2-0.1-0.3-0.1c-0.4-0.1-0.9,0.1-1.2,0.4c-0.1,0.1-0.2,0.3-0.3,0.5c-0.1,0.2-0.1,0.4-0.1,0.5  c0,0.5,0.4,1,0.9,1.2l0.6,0.2c0,0,0,0,0,0l0.6,0.2c0.2,0.1,0.3,0.1,0.5,0.1c0.5,0,1.1-0.3,1.3-0.9C9.7,47.2,9.3,46.5,8.6,46.2z"></path><path d="M13.7,48.1l-0.3-0.1c0,0,0,0,0,0L12,47.4c-0.7-0.3-1.5,0.1-1.7,0.8c-0.3,0.7,0.1,1.5,0.8,1.7l0.4,0.2c0,0,0,0,0,0l1.3,0.5  c0.2,0.1,0.3,0.1,0.5,0.1c0.5,0,1.1-0.3,1.3-0.9C14.7,49.1,14.4,48.3,13.7,48.1z"></path><path d="M26.5,55.7l0.4,0.2c0,0,0,0,0,0l1.3,0.5c0.2,0.1,0.3,0.1,0.5,0.1c0.5,0,1.1-0.3,1.3-0.9c0.3-0.7-0.1-1.5-0.8-1.7l-0.5-0.2  c0,0,0,0,0,0l-1.3-0.5c-0.7-0.3-1.5,0.1-1.7,0.8C25.5,54.6,25.9,55.4,26.5,55.7z"></path><path d="M31.6,57.5l1.3,0.5c0,0,0,0,0,0l0.8,0.3c0.2,0.1,0.3,0.1,0.5,0.1c0.5,0,1.1-0.3,1.3-0.9c0.3-0.7-0.1-1.5-0.8-1.7l-1.3-0.5  c0,0,0,0,0,0L32.5,55c-0.7-0.3-1.5,0.1-1.7,0.8C30.5,56.5,30.9,57.2,31.6,57.5z"></path><path d="M71.7,46.4c-0.3-0.5-0.8-0.8-1.4-0.7c-0.1,0-0.2,0-0.3,0.1L69.4,46c0,0,0,0,0,0l-0.6,0.2c-0.7,0.3-1,1-0.8,1.7  c0.2,0.5,0.7,0.9,1.3,0.9c0.2,0,0.3,0,0.5-0.1l1.3-0.5c0.7-0.3,1-1,0.8-1.7C71.7,46.5,71.7,46.5,71.7,46.4z"></path><path d="M38.7,24.3c0.7,0,1.3-0.6,1.3-1.3v-0.8v-0.6v-0.1c0-0.7-0.6-1.3-1.3-1.3s-1.3,0.6-1.3,1.3v0.1v0.6V23  C37.4,23.7,38,24.3,38.7,24.3z"></path><path d="M38.7,29.7c0.7,0,1.3-0.6,1.3-1.3v-0.8V27v-0.8c0-0.7-0.6-1.3-1.3-1.3s-1.3,0.6-1.3,1.3V27v0.5v0.8  C37.4,29.1,38,29.7,38.7,29.7z"></path><path d="M38.7,45.7c0.7,0,1.3-0.6,1.3-1.3v-0.9v-0.4v-0.9c0-0.7-0.6-1.3-1.3-1.3s-1.3,0.6-1.3,1.3v0.9v0.4v0.9  C37.4,45.1,38,45.7,38.7,45.7z"></path><path d="M38.7,51.1c0.7,0,1.3-0.6,1.3-1.3v-1v-0.3v-1c0-0.7-0.6-1.3-1.3-1.3s-1.3,0.6-1.3,1.3v1v0.3v1C37.4,50.5,38,51.1,38.7,51.1z  "></path><path d="M38.7,35c0.7,0,1.3-0.6,1.3-1.3v-0.9v-0.5v-0.8c0-0.7-0.6-1.3-1.3-1.3s-1.3,0.6-1.3,1.3v0.8v0.5v0.9  C37.4,34.4,38,35,38.7,35z"></path><path d="M38.7,40.4c0.7,0,1.3-0.6,1.3-1.3v-0.9v-0.4v-0.9c0-0.7-0.6-1.3-1.3-1.3s-1.3,0.6-1.3,1.3v0.9v0.4V39  C37.4,39.8,38,40.4,38.7,40.4z"></path><path d="M17.9,27.6c0.3,0.4,0.7,0.6,1.1,0.6c0.2,0,0.5-0.1,0.7-0.2c0.6-0.4,0.8-1.2,0.4-1.8l-0.4-0.6c-0.4-0.6-1.2-0.8-1.8-0.4  c-0.6,0.4-0.8,1.2-0.4,1.8L17.9,27.6z"></path><path d="M26.5,41.5c0.3,0.4,0.7,0.6,1.1,0.6c0.2,0,0.5-0.1,0.7-0.2c0.6-0.4,0.8-1.2,0.4-1.8L28,38.9c-0.4-0.6-1.2-0.8-1.8-0.4  c-0.6,0.4-0.8,1.2-0.4,1.8L26.5,41.5z"></path><path d="M31.2,46.6c0.6-0.4,0.8-1.2,0.4-1.8l-0.7-1.2c-0.4-0.6-1.2-0.8-1.8-0.4c-0.6,0.4-0.8,1.2-0.4,1.8l0.7,1.2  c0.3,0.4,0.7,0.6,1.1,0.6C30.7,46.8,31,46.7,31.2,46.6z"></path><path d="M23,30.9l-0.7-1.2c-0.4-0.6-1.2-0.8-1.8-0.4c-0.6,0.4-0.8,1.2-0.4,1.8l0.7,1.2c0.3,0.4,0.7,0.6,1.1,0.6  c0.2,0,0.5-0.1,0.7-0.2C23.2,32.3,23.4,31.5,23,30.9z"></path><path d="M34.3,54.2l0.7,1.2c0.3,0.4,0.7,0.6,1.1,0.6c0.2,0,0.5-0.1,0.7-0.2c0.2-0.1,0.4-0.3,0.5-0.6c0.1,0.5,0.4,1,0.9,1.1  c-0.1,0.1-0.2,0.2-0.3,0.3l-0.2,0.2c0,0,0,0,0,0l-0.3-0.1c-0.7-0.3-1.5,0.1-1.7,0.8c-0.3,0.7,0.1,1.5,0.8,1.7l1,0.4c0,0,0,0,0,0  l0.6,0.2c0,0,0,0,0,0c0,0,0,0,0.1,0c0.1,0,0.2,0.1,0.4,0.1c0,0,0,0,0,0c0,0,0,0,0,0c0,0,0,0,0,0c0.1,0,0.3,0,0.4-0.1c0,0,0,0,0.1,0  c0,0,0,0,0,0l0.6-0.2c0,0,0,0,0,0l1-0.4c0.7-0.3,1-1,0.8-1.7c-0.2-0.6-0.8-0.9-1.4-0.9c-0.1-0.2-0.2-0.4-0.5-0.5  c-0.1-0.1-0.2-0.1-0.3-0.1c0.3-0.2,0.5-0.6,0.5-1v-0.6c0.1,0.2,0.3,0.4,0.5,0.6c0.2,0.1,0.5,0.2,0.7,0.2c0.4,0,0.9-0.2,1.1-0.6  l0.7-1.2c0.4-0.6,0.2-1.5-0.4-1.8c-0.6-0.4-1.5-0.2-1.8,0.4l-0.7,1.2c0,0,0,0.1-0.1,0.2v-0.7c0-0.7-0.6-1.3-1.3-1.3  s-1.3,0.6-1.3,1.3v1V54c0,0,0,0,0-0.1l-0.7-1.2c-0.4-0.6-1.2-0.8-1.8-0.4C34.2,52.8,34,53.6,34.3,54.2z"></path><path d="M31.9,47.8c-0.6,0.4-0.8,1.2-0.4,1.8l0.7,1.2c0.3,0.4,0.7,0.6,1.1,0.6c0.2,0,0.5-0.1,0.7-0.2c0.6-0.4,0.8-1.2,0.4-1.8  l-0.7-1.2C33.4,47.6,32.6,47.4,31.9,47.8z"></path><path d="M23.6,36.9c0.3,0.4,0.7,0.6,1.1,0.6c0.2,0,0.5-0.1,0.7-0.2c0.6-0.4,0.8-1.2,0.4-1.8l-0.7-1.2c-0.4-0.6-1.2-0.8-1.8-0.4  c-0.6,0.4-0.8,1.2-0.4,1.8L23.6,36.9z"></path><path d="M55.1,29l-0.7,1.2c-0.4,0.6-0.2,1.5,0.4,1.8c0.2,0.1,0.5,0.2,0.7,0.2c0.4,0,0.9-0.2,1.1-0.6l0.7-1.2  c0.4-0.6,0.2-1.5-0.4-1.8C56.3,28.1,55.5,28.3,55.1,29z"></path><path d="M51.5,34.7c-0.4,0.6-0.2,1.5,0.4,1.8c0.2,0.1,0.5,0.2,0.7,0.2c0.4,0,0.9-0.2,1.1-0.6l0.7-1.2c0.4-0.6,0.2-1.5-0.4-1.8  c-0.6-0.4-1.5-0.2-1.8,0.4L51.5,34.7z"></path><path d="M45.2,50l0.7-1.2c0.4-0.6,0.2-1.5-0.4-1.8c-0.6-0.4-1.5-0.2-1.8,0.4L43,48.6c-0.4,0.6-0.2,1.5,0.4,1.8  c0.2,0.1,0.5,0.2,0.7,0.2C44.5,50.7,45,50.4,45.2,50z"></path><path d="M51.2,37.8c-0.6-0.4-1.5-0.2-1.8,0.4l-0.7,1.2c-0.4,0.6-0.2,1.5,0.4,1.8c0.2,0.1,0.5,0.2,0.7,0.2c0.4,0,0.9-0.2,1.1-0.6  l0.7-1.2C52.1,39,51.9,38.2,51.2,37.8z"></path><path d="M48.1,45.4l0.7-1.2c0.4-0.6,0.2-1.5-0.4-1.8c-0.6-0.4-1.5-0.2-1.8,0.4L45.8,44c-0.4,0.6-0.2,1.5,0.4,1.8  C46.5,46,46.7,46,47,46C47.4,46,47.8,45.8,48.1,45.4z"></path><path d="M17.7,52.4L17.7,52.4c0.2,0.1,0.4,0.1,0.5,0.1c0.5,0,1.1-0.3,1.3-0.9c0.3-0.7-0.1-1.5-0.8-1.7l-1.3-0.5c0,0,0,0,0,0l-0.1,0  c0,0-0.1,0-0.1,0c0,0,0,0,0,0c-0.7-0.2-1.3,0.2-1.6,0.8c-0.3,0.7,0.1,1.5,0.8,1.7L17.7,52.4C17.7,52.4,17.7,52.4,17.7,52.4z"></path><path d="M52.7,53.6c0.2,0.5,0.7,0.9,1.3,0.9c0.2,0,0.3,0,0.5-0.1l0.2-0.1c0,0,0,0,0,0l1.3-0.5c0.7-0.3,1-1,0.8-1.7  c-0.3-0.7-1-1-1.7-0.8l-0.2,0.1c0,0,0,0,0,0l-1.3,0.5C52.8,52.1,52.4,52.9,52.7,53.6z"></path><path d="M42.1,57.5c0.2,0.5,0.7,0.9,1.3,0.9c0.2,0,0.3,0,0.5-0.1l0.8-0.3c0,0,0,0,0,0l1.3-0.5c0.7-0.3,1-1,0.8-1.7  c-0.3-0.7-1-1.1-1.7-0.8l-0.7,0.3c0,0,0,0,0,0l-1.3,0.5C42.2,56,41.8,56.8,42.1,57.5z"></path><path d="M48.6,56.4c0.2,0,0.3,0,0.5-0.1l0.8-0.3l0.9-0.3c0.7-0.3,1-1,0.8-1.7c-0.3-0.7-1-1-1.7-0.8l-0.4,0.2c0,0,0,0,0,0l-0.7,0.3  l-0.1,0c0,0,0,0,0,0l-0.5,0.2c-0.7,0.3-1,1-0.8,1.7C47.6,56.1,48.1,56.4,48.6,56.4z"></path><path d="M7.7,38.2c-0.7,0-1.3,0.6-1.3,1.3s0.6,1.3,1.3,1.3h4.8c0.2,0,0.3,0,0.5-0.1c0,0,0.1,0,0.1-0.1c0.1-0.1,0.2-0.1,0.3-0.2  c0,0,0.1-0.1,0.1-0.1c0.1-0.1,0.2-0.2,0.2-0.4c0,0,0,0,0,0c0,0,0,0,0,0c0.1-0.2,0.1-0.3,0.1-0.5c0,0,0,0,0,0V35  c0-0.7-0.6-1.3-1.3-1.3c-0.7,0-1.3,0.6-1.3,1.3v1.3l-8.9-8.9c-0.5-0.5-1.4-0.5-1.9,0c-0.5,0.5-0.5,1.4,0,1.9l8.9,8.9H7.7z"></path><path d="M78.4,25.1l-3.2-3.2c-0.5-0.5-1.4-0.5-1.9,0L56.8,38.4c-0.1,0.1-0.2,0.3-0.3,0.4c0,0,0,0,0,0c0,0,0,0,0,0l-2.2,5.4  c-0.2,0.5-0.1,1.1,0.3,1.4c0.3,0.3,0.6,0.4,0.9,0.4c0.2,0,0.3,0,0.5-0.1l5.4-2.2c0,0,0,0,0,0c0.2-0.1,0.3-0.2,0.4-0.3L78.4,27  C78.9,26.5,78.9,25.7,78.4,25.1z M58.3,41.7l0.4,0.4L58,42.3L58.3,41.7z M61,40.6l-1.3-1.3l14.5-14.5l1.3,1.3L61,40.6z"></path></svg>