<svg height='100px' width='100px'  fill="#fff" xmlns="http://www.w3.org/2000/svg" xmlnsXlink="http://www.w3.org/1999/xlink" version="1.1" x="0px" y="0px" viewBox="0 0 321.875 369.38" style="enable-background:new 0 0 321.875 369.38;" xmlSpace="preserve"><g><path d="M118.041,369.38c6.828,0,12.365-5.533,12.365-12.363v-90.272h4.635v90.272c0,6.83,5.537,12.363,12.363,12.363   c6.828,0,12.365-5.533,12.365-12.363V207.409c2.927,2.186,5.941,4.345,8.723,6.116c1.551,0.981,3.015,1.846,4.518,2.575   c0.758,0.366,1.525,0.701,2.426,0.998c0.914,0.283,1.929,0.588,3.559,0.608c0.749-0.002,1.652-0.079,2.719-0.404   c1.577-0.442,3.582-1.745,4.705-3.559c1.151-1.797,1.402-3.583,1.4-4.831c-0.035-1.961-0.465-3.112-0.863-4.189   c-1.258-3.043-3.094-5.716-6.178-9.876c-0.574-0.761-1.193-1.567-1.855-2.413c-4.883-6.246-12.219-14.859-22.945-26.779   c-2.956-3.285-8.014-3.551-11.297-0.595c-3.285,2.957-3.551,8.015-0.595,11.298c10.573,11.744,17.743,20.188,22.228,25.921   l-1.576,1.231c-4.023-5.149-9.888-12.061-17.487-20.614h-33.843c-0.381,0-0.752,0.037-1.117,0.09   c-3.872,0.287-7.495,1.84-10.256,4.054c-4.678,3.751-7.408,8.847-9.25,14.285c-1.813,5.471-2.664,11.446-2.67,17.449   c0.074,9.468,1.973,19.043,7.541,26.603c0.039,0.054,0.072,0.11,0.112,0.164v-0.003c1.786,2.316,3.964,3.74,6.052,4.744   c0.388,0.183,0.775,0.353,1.164,0.512c2.772,1.138,5.551,1.7,8.297,2.084c3.127,0.419,6.207,0.544,8.99,0.546   c5.67-0.004,10.095-0.531,10.291-0.552c4.388-0.52,7.522-4.497,7.004-8.885c-0.52-4.388-4.496-7.522-8.885-7.004   c0,0-0.16,0.02-0.574,0.061c-1.24,0.123-4.34,0.38-7.836,0.378c-3.031,0.008-6.389-0.213-8.838-0.738   c-1.108-0.229-1.998-0.521-2.547-0.764l0.737-1.856c0.315,0.146,1.087,0.428,2.214,0.661c2.072,0.445,5.08,0.697,8.269,0.697   l0.159-0.002c3.659,0,6.774-0.279,7.643-0.367c0.348-0.033,0.496-0.05,0.52-0.055c0.413-0.048,0.81-0.07,1.201-0.07   c5.063,0,9.327,3.793,9.924,8.823c0.648,5.476-3.279,10.458-8.755,11.106c-1.216,0.138-5.386,0.564-10.524,0.567h-0.002h-0.002   c-3.414-0.004-6.441-0.188-9.254-0.565c-2.08-0.291-4.647-0.741-7.336-1.671v5.832v98   C105.678,363.847,111.215,369.38,118.041,369.38z"></path><path d="M140.045,170.481c0.078-1.484,0.486-2.896,1.164-4.17c-1.918-0.966-3.748-1.331-5.477-1.336   c-5.238-0.036-9.69,3.558-10.633,4.431c-0.134,0.121-0.182,0.169-0.182,0.169l-2.104-2.138c0.126-0.085,5.4-5.407,12.919-5.461   c2.303-0.004,4.799,0.546,7.303,1.904c0.104-0.102,0.199-0.208,0.308-0.306c1.839-1.655,4.213-2.568,6.685-2.568   c1.4,0,2.771,0.297,4.027,0.85c0.755-2.25,1.17-4.655,1.17-7.158c0-12.428-10.072-22.5-22.5-22.5c-12.426,0-22.5,10.072-22.5,22.5   c0,12.426,10.074,22.5,22.5,22.5c2.977,0,5.814-0.583,8.414-1.632C140.339,174.012,139.951,172.272,140.045,170.481z"></path><path d="M146.542,126.167c0,2.761,2.238,5,5,5c2.761,0,5-2.239,5-5c0-2.761-2.239-5-5-5   C148.78,121.167,146.542,123.406,146.542,126.167z M151.376,123.334c1.656,0,3,1.343,3,3c0,1.656-1.344,3-3,3c-1.657,0-3-1.344-3-3   C148.376,124.677,149.719,123.334,151.376,123.334z"></path><path d="M154.542,114.001c0,3.589,2.91,6.5,6.5,6.5c3.59,0,6.5-2.911,6.5-6.5c0-3.589-2.91-6.5-6.5-6.5   C157.452,107.501,154.542,110.412,154.542,114.001z M165.542,114.5c0,2.578-2.09,4.667-4.667,4.667   c-2.577,0-4.667-2.089-4.667-4.667c0-2.576,2.09-4.666,4.667-4.666C163.452,109.834,165.542,111.924,165.542,114.5z"></path><path d="M73.288,152.01c3.59,0,6.5-2.911,6.5-6.5c0-3.59-2.91-6.5-6.5-6.5c-3.59,0-6.5,2.91-6.5,6.5   C66.788,149.099,69.698,152.01,73.288,152.01z M73.704,141.51c2.441,0,4.417,1.976,4.417,4.416c0,2.438-1.976,4.416-4.417,4.416   c-2.438,0-4.416-1.978-4.416-4.416C69.288,143.486,71.266,141.51,73.704,141.51z"></path><path d="M189.041,147.001c-3.59,0-6.5,2.91-6.5,6.5c0,3.59,2.91,6.5,6.5,6.5c3.59,0,6.5-2.91,6.5-6.5   C195.541,149.911,192.631,147.001,189.041,147.001z M188.875,158.667c-2.577,0-4.666-2.09-4.666-4.666   c0-2.578,2.089-4.668,4.666-4.668c2.577,0,4.666,2.09,4.666,4.668C193.541,156.577,191.452,158.667,188.875,158.667z"></path><path d="M192.537,174.176c-3.59,0-6.5,2.91-6.5,6.5c0,3.59,2.91,6.5,6.5,6.5c3.59,0,6.5-2.91,6.5-6.5   C199.037,177.086,196.127,174.176,192.537,174.176z M192.371,185.842c-2.578,0-4.666-2.09-4.666-4.666   c0-2.576,2.088-4.666,4.666-4.666c2.576,0,4.666,2.09,4.666,4.666C197.037,183.752,194.947,185.842,192.371,185.842z"></path><path d="M205.875,136.667c-4.604,0-8.334,3.732-8.334,8.334c0,4.602,3.73,8.332,8.334,8.332c4.602,0,8.333-3.73,8.333-8.332   C214.208,140.399,210.477,136.667,205.875,136.667z M205.661,151.624c-3.304,0-5.983-2.68-5.983-5.982   c0-3.305,2.68-5.984,5.983-5.984s5.983,2.68,5.983,5.984C211.645,148.944,208.965,151.624,205.661,151.624z"></path><path d="M203.041,183c0,4.602,3.73,8.334,8.334,8.334c4.602,0,8.334-3.732,8.334-8.334c0-4.602-3.732-8.332-8.334-8.332   C206.771,174.668,203.041,178.398,203.041,183z M217.145,183.641c0,3.305-2.68,5.982-5.982,5.982c-3.305,0-5.984-2.678-5.984-5.982   c0-3.303,2.68-5.982,5.984-5.982C214.465,177.658,217.145,180.338,217.145,183.641z"></path><path d="M158.542,86.834c-4.971,0-9,4.03-9,9c0,4.97,4.029,9,9,9s9-4.03,9-9C167.542,90.864,163.513,86.834,158.542,86.834z    M158.312,102.986c-3.568,0-6.462-2.893-6.462-6.461c0-3.568,2.894-6.461,6.462-6.461c3.568,0,6.461,2.893,6.461,6.461   C164.772,100.094,161.88,102.986,158.312,102.986z"></path><path d="M86.286,150.927c-2.761,0-5,2.238-5,5c0,2.762,2.239,5,5,5c2.762,0,5-2.238,5-5   C91.286,153.165,89.048,150.927,86.286,150.927z M86.87,159.343c-1.656,0-3-1.344-3-3c0-1.656,1.344-3,3-3c1.657,0,3,1.344,3,3   C89.87,157.999,88.527,159.343,86.87,159.343z"></path><path d="M100.391,159.843c1.83,0,3.313-1.483,3.313-3.313c0-1.83-1.483-3.312-3.313-3.312c-1.828,0-3.312,1.482-3.312,3.312   C97.078,158.359,98.563,159.843,100.391,159.843z M100.778,154.818c1.098,0,1.987,0.89,1.987,1.987c0,1.098-0.89,1.987-1.987,1.987   c-1.097,0-1.987-0.89-1.987-1.987C98.791,155.708,99.682,154.818,100.778,154.818z"></path><path d="M172.707,148.167c-2.761,0-5,2.238-5,5c0,2.762,2.239,5,5,5c2.762,0,5-2.238,5-5   C177.707,150.405,175.469,148.167,172.707,148.167z M172.541,156.333c-1.656,0-3-1.344-3-3c0-1.656,1.344-3,3-3   c1.657,0,3,1.344,3,3C175.541,154.989,174.198,156.333,172.541,156.333z"></path><path d="M178.207,168.834c-2.76,0-5,2.238-5,5c0,2.762,2.24,5,5,5c2.762,0,5-2.238,5-5   C183.207,171.072,180.969,168.834,178.207,168.834z M178.041,177c-1.656,0-3-1.344-3-3c0-1.656,1.344-3,3-3c1.658,0,3,1.344,3,3   C181.041,175.656,179.699,177,178.041,177z"></path><path d="M93.376,63.794c0,13.828,11.416,25.038,25.5,25.038c8.553,0,16.116-4.139,20.743-10.483   c2.465,1.177,5.272,1.851,8.257,1.851c6.134,0,11.534-2.82,14.7-7.098c3.781,2.557,8.219,4.03,12.967,4.03   c13.807,0,24.999-12.456,24.999-27.82c0-7.711-2.819-14.688-7.373-19.727c1.284-2.136,2.04-4.724,2.04-7.518   c0-7.313-5.149-13.24-11.501-13.24c-1.426,0-2.786,0.313-4.046,0.859c-2.301-4.417-6.487-7.382-11.286-7.382   c-3.005,0-5.765,1.171-7.98,3.121C156.203,2.012,151.08,0,145.542,0c-9.509,0-17.804,5.918-22.238,14.706   c-1.099-0.319-2.243-0.507-3.429-0.507c-7.604,0-13.778,6.983-13.98,15.682c-0.512-0.083-1.03-0.141-1.562-0.141   c-6.145,0-11.125,5.733-11.125,12.807c0,3.584,1.282,6.821,3.344,9.146C94.53,55.279,93.376,59.403,93.376,63.794z M97.625,45.185   c0-6.782,4.774-12.279,10.666-12.279c1.513,0,2.949,0.367,4.253,1.021c-0.905-1.142-1.983-2.093-3.193-2.799   c1.12-7.062,6.483-12.418,12.941-12.418c0.781,0,1.542,0.093,2.286,0.244c4.648-7.517,12.302-12.428,20.964-12.428   c4.518,0,8.76,1.339,12.447,3.683c2.447-1.608,5.388-2.549,8.553-2.549c3.939,0,7.52,1.464,10.245,3.853   c-1.508,1.312-2.723,3.036-3.521,5.034c1.95-2.451,4.744-3.998,7.859-3.998c5.892,0,10.667,5.498,10.667,12.281   c0,3.905-1.589,7.377-4.058,9.625c1.15-0.496,2.216-1.19,3.157-2.059c2.513,4.082,3.984,9.019,3.984,14.339   c0,14.033-10.223,25.409-22.834,25.409c-3.509,0-6.832-0.883-9.803-2.458c-3.204,4.037-8.436,6.677-14.363,6.677   c-2.24,0-4.375-0.391-6.347-1.077c1.608-3.051,2.601-6.465,2.805-10.087c-0.135-0.007-0.27-0.019-0.404-0.028   c-2.105,10.428-11.471,18.29-22.71,18.29c-12.788,0-23.154-10.18-23.154-22.736c0-2.39,0.378-4.692,1.073-6.855   c0.881,0.536,1.83,0.939,2.83,1.189C99.338,52.821,97.625,49.238,97.625,45.185z"></path><path d="M200.252,104.857c-6.14,2.42-10.377,7.479-10.377,13.349c0,8.215,8.283,14.875,18.5,14.875   c1.666,0,3.273-0.193,4.809-0.526c4.002,8.78,14.217,15.024,26.191,15.024c12.6,0,23.254-6.91,26.769-16.416   c2.313,0.807,4.802,1.25,7.398,1.25c12.15,0,22-9.625,22-21.5c0-5.989-2.508-11.403-6.551-15.302   c1.786-1.934,2.885-4.498,2.885-7.323c0-6.006-4.926-10.875-11-10.875c-0.575,0-1.135,0.057-1.686,0.141   c-2.805-10.381-13.964-18.141-27.314-18.141c-9.092,0-17.169,3.602-22.284,9.178c-2.152-0.44-4.4-0.678-6.716-0.678   c-15.464,0-28,10.41-28,23.25C194.875,96.284,196.873,101.016,200.252,104.857z M265.543,120.996   c0,12.013-11.865,21.751-26.5,21.751c-14.637,0-26.501-9.738-26.501-21.751c0-1.756,0.261-3.461,0.739-5.097   c-1.227,2.614-1.906,5.456-1.906,8.43c0,2.134,0.354,4.199,1.002,6.162c-0.621,0.056-1.25,0.09-1.89,0.09   c-9.358,0-16.945-6.1-16.945-13.625c0-4.698,2.958-8.84,7.456-11.289c1.197,1.244,2.542,2.386,4.018,3.402   c-3.734-4.146-5.975-9.417-5.975-15.158c0-13.349,12.089-24.17,27-24.17c0.835,0,1.66,0.039,2.475,0.105   c-2.681,3.361-4.341,7.333-4.604,11.611c2.939-10.217,13.817-17.802,26.797-17.802c11.639,0,21.587,6.103,25.637,14.73   c-1.439,0.645-2.711,1.586-3.739,2.746c0.077-0.026,0.149-0.059,0.227-0.084c6.186-1.963,12.674,1.086,14.49,6.811   c1.2,3.779,0.054,7.772-2.637,10.62c0.537-0.196,1.057-0.426,1.549-0.699c2.486,3.296,3.973,7.355,3.973,11.763   c0,10.975-9.105,19.871-20.334,19.871c-1.06,0-2.092-0.104-3.108-0.256c0.396-1.558,0.608-3.172,0.608-4.828"></path><path d="M30.107,131.856c2.435,5.452,9.451,9.394,17.738,9.394c7.271,0,13.556-3.04,16.636-7.466   c1.416,0.231,2.873,0.358,4.363,0.358c13.432,0,24.32-9.798,24.32-21.888c0-4.197-1.315-8.117-3.592-11.448   c4.253-2.518,7.053-6.798,7.053-11.655c0-6.604-5.179-12.129-12.145-13.621c0.172-0.89,0.266-1.808,0.266-2.75   c0-7.749-6.094-14.03-13.61-14.03c-3.61,0-6.882,1.459-9.318,3.823c-5.009-2.313-10.776-3.636-16.919-3.636   c-19.217,0-34.795,12.898-34.795,28.809c0,1.767,0.203,3.495,0.57,5.175C4.17,96.933,0,103.095,0,110.009   c0,12.088,12.731,21.888,28.436,21.888C28.997,131.896,29.553,131.88,30.107,131.856z M6.734,107.017   c0-7.091,4.344-13.38,11.041-17.299c-1.633,0.509-3.189,1.131-4.654,1.853c0.523-15.205,14.965-27.395,32.713-27.395   c4.668,0,9.105,0.849,13.123,2.368c-0.908,1.881-1.432,3.994-1.432,6.237c0,0.754,0.074,1.489,0.186,2.211   c0.452-6.414,5.437-11.471,11.531-11.471c6.393,0,11.574,5.561,11.574,12.418c0,3.999-1.77,7.546-4.506,9.817   c2.639-1.12,4.851-3.072,6.351-5.537c5.729,1.917,9.755,6.428,9.755,11.69c0,4.557-3.027,8.541-7.557,10.775   c0.458-0.109,0.907-0.236,1.349-0.379c1.104,2.5,1.718,5.224,1.718,8.078c0,11.543-9.93,20.991-22.518,21.821   c0.697-1.428,1.098-2.96,1.098-4.563c0-3.481-1.808-6.646-4.756-9.053c0.833,1.648,1.295,3.457,1.295,5.357   c0,7.646-7.454,13.843-16.648,13.843c-9.045,0-16.391-6-16.628-13.474c-0.368,1.066-0.585,2.177-0.585,3.326   c0,0.188,0.028,0.371,0.039,0.558C16.446,126.428,6.734,117.621,6.734,107.017z"></path><path d="M274.541,145.668c-15.394,0-28.42,7.968-32.777,18.945c-10.474,4.624-17.555,13.437-17.555,23.555   c0,6.854,3.254,13.106,8.604,17.868c-1.445,2.264-2.271,4.864-2.271,7.632c0,8.744,8.209,15.832,18.334,15.832   c5.008,0,9.542-1.738,12.852-4.548c4.558,2.134,10.059,3.382,15.982,3.382c11.759,0,21.852-4.915,26.207-11.929   c10.697-4.574,17.959-13.489,17.959-23.737c0-8.584-5.099-16.225-13.037-21.171C308.057,157.129,293.005,145.668,274.541,145.668z    M305.541,179.334c0,2.188-0.323,4.313-0.918,6.35c2.222-3.167,3.654-6.722,4.099-10.503c4.885,4.664,7.819,10.64,7.819,17.153   c0,7.72-4.126,14.677-10.73,19.598c0.258-1.062,0.398-2.151,0.398-3.264c0-1.848-0.377-3.634-1.068-5.329   c0.041,0.439,0.068,0.882,0.068,1.329c0,10.861-12.014,19.666-26.834,19.666c-4.984,0-9.649-1-13.648-2.735   c1.069-1.591,1.822-3.354,2.197-5.233c-2.605,4.472-7.688,7.782-13.809,8.373c-9.422,0.912-17.695-4.943-18.482-13.078   c-0.416-4.305,1.365-8.375,4.517-11.397c-1.601,0.868-3.037,1.935-4.255,3.174c-3.795-4.344-6.02-9.601-6.02-15.268   c0-8.173,4.623-15.491,11.918-20.442c-0.377,1.603-0.584,3.253-0.584,4.942c0,1.115,0.096,2.212,0.264,3.292   c2.01-13.317,15.745-23.626,32.402-23.626C290.916,152.334,305.541,164.424,305.541,179.334z"></path><path d="M98.372,179.851c-3.036-0.022-4.926,1.594-5.839,3.135c-0.936,1.54-1.084,2.99-1.097,3.073   c-0.061,0.549,0.338,1.042,0.888,1.101c0.035,0.003,0.071,0.005,0.107,0.005c0.504,0,0.938-0.379,0.992-0.893   c0-0.002,0.024-0.241,0.144-0.672c0.423-1.344,1.376-3.732,4.805-3.747c0.386,0,0.805,0.03,1.263,0.101   c0.546,0.082,1.057-0.292,1.14-0.837c0.085-0.547-0.29-1.056-0.835-1.141C99.384,179.892,98.863,179.851,98.372,179.851z"></path><path d="M88.962,179.523c-1.418,2.118-1.741,4.158-1.76,4.24c-0.087,0.543,0.283,1.058,0.829,1.146   c0.053,0.009,0.105,0.013,0.158,0.013c0.482,0,0.908-0.349,0.988-0.841c0,0,0.06-0.39,0.277-1.046   c0.71-2.011,2.522-5.787,7.824-5.797c0.752,0,1.583,0.076,2.498,0.253c0.541,0.102,1.066-0.252,1.171-0.795   c0.104-0.542-0.251-1.066-0.792-1.171c-1.03-0.197-1.988-0.288-2.877-0.288C93.01,175.219,90.357,177.406,88.962,179.523z"></path><path d="M191.361,212.343c0.186,0.15,0.407,0.223,0.628,0.223c0.292,0,0.581-0.127,0.778-0.372c1.379-1.702,1.934-3.377,1.93-4.854   c-0.049-3.524-2.822-5.478-2.889-5.555c-0.445-0.329-1.071-0.234-1.398,0.21c-0.328,0.446-0.234,1.072,0.21,1.399   c0,0,0.1,0.072,0.299,0.258c0.614,0.565,1.794,1.95,1.778,3.688c-0.004,0.987-0.34,2.168-1.486,3.597   C190.864,211.367,190.932,211.996,191.361,212.343z"></path><path d="M195.086,214.724c0.189,0.166,0.424,0.246,0.656,0.246c0.279,0,0.557-0.116,0.756-0.343   c2.323-2.651,3.193-5.242,3.188-7.499c-0.041-4.829-3.691-7.759-3.758-7.837c-0.428-0.354-1.058-0.291-1.408,0.135   c-0.352,0.426-0.289,1.056,0.137,1.407c0,0,0.159,0.131,0.446,0.428c0.876,0.895,2.599,3.083,2.584,5.867   c-0.006,1.747-0.63,3.808-2.695,6.183C194.626,213.726,194.668,214.358,195.086,214.724z"></path><path d="M164.861,293.843c0.185,0.149,0.407,0.222,0.628,0.222c0.292,0,0.581-0.127,0.778-0.371   c1.381-1.703,1.934-3.376,1.929-4.855c-0.047-3.525-2.819-5.478-2.887-5.554c-0.446-0.328-1.073-0.234-1.399,0.21   c-0.328,0.444-0.234,1.07,0.211,1.399c0,0,0.1,0.071,0.299,0.257c0.614,0.564,1.795,1.951,1.776,3.688   c-0.004,0.989-0.339,2.169-1.484,3.597C164.365,292.866,164.431,293.497,164.861,293.843z"></path><path d="M168.587,296.222c0.188,0.166,0.424,0.247,0.657,0.247c0.278,0,0.556-0.115,0.754-0.341   c2.322-2.653,3.193-5.244,3.188-7.501c-0.041-4.83-3.689-7.758-3.759-7.838c-0.427-0.353-1.056-0.292-1.407,0.137   c-0.351,0.426-0.289,1.056,0.137,1.407c0,0,0.159,0.13,0.447,0.426c0.875,0.895,2.596,3.083,2.584,5.868   c-0.006,1.748-0.631,3.808-2.697,6.184C168.126,295.227,168.168,295.859,168.587,296.222z"></path><path d="M94.655,254.52c1.542,0.964,3.149,1.093,4.036,1.098c0.414-0.002,0.676-0.033,0.708-0.037   c0.548-0.069,0.938-0.568,0.868-1.116c-0.068-0.548-0.568-0.937-1.115-0.868c0,0-0.148,0.02-0.461,0.02   c-0.674,0.004-1.928-0.126-2.971-0.789c-1.033-0.672-1.98-1.792-2.206-4.28c-0.044-0.55-0.528-0.96-1.079-0.913   c-0.551,0.044-0.961,0.527-0.914,1.08C91.747,251.692,93.107,253.567,94.655,254.52z"></path><path d="M88.098,248.484c-0.551,0.024-0.978,0.494-0.955,1.043c0.191,4.877,2.382,7.728,4.772,9.147   c2.378,1.431,4.834,1.561,5.801,1.565c0.256,0,0.406-0.008,0.427-0.01c0.55-0.039,0.966-0.514,0.93-1.066   c-0.036-0.55-0.514-0.966-1.063-0.93h-0.002c0,0-0.088,0.006-0.291,0.006c-0.766,0.006-2.893-0.134-4.766-1.277   c-1.863-1.155-3.594-3.182-3.809-7.525C89.117,248.889,88.649,248.46,88.098,248.484z"></path></g></svg>