<svg xmlns="http://www.w3.org/2000/svg" data-name="Layer 1" viewBox="0 0 128 160" x="0px" y="0px"><title>Miscellaneous- 247_Expanded</title><path d="M85.916,26.045a6.01541,6.01541,0,1,0-4.82819,6.85114A16.05521,16.05521,0,0,1,82.35,37.63184,5.99533,5.99533,0,0,0,88.314,43h15.37128a5.99533,5.99533,0,0,0,5.96393-5.36816v-.00049a16.05383,16.05383,0,0,1,1.26215-4.73523,5.99836,5.99836,0,1,0-4.82812-6.8512,10.67911,10.67911,0,0,1-2.3335-.42871,9.05155,9.05155,0,0,1-2.71246-1.36847,6.00007,6.00007,0,1,0-10.07532,0,9.0505,9.0505,0,0,1-2.7124,1.36847A10.67241,10.67241,0,0,1,85.916,26.045ZM79.99939,29a2,2,0,1,1,2.00006-2A2.00229,2.00229,0,0,1,79.99939,29Zm32.00043-4a2,2,0,1,1-2.00006,2A2.00229,2.00229,0,0,1,111.99982,25ZM95.99957,19a2,2,0,1,1-2,2A2.0023,2.0023,0,0,1,95.99957,19Zm-1.74677,7.739a5.97486,5.97486,0,0,0,3.49359,0,12.95155,12.95155,0,0,0,4.83435,2.70294,15.08878,15.08878,0,0,0,4.27289.62744,6.027,6.027,0,0,0,.57.80243,20.52235,20.52235,0,0,0-1.75891,6.39679A1.96513,1.96513,0,0,1,103.68524,39H88.314a1.96517,1.96517,0,0,1-1.97955-1.731,20.52215,20.52215,0,0,0-1.75885-6.39728,6.0274,6.0274,0,0,0,.57037-.80316,15.12082,15.12082,0,0,0,4.27252-.62671A12.952,12.952,0,0,0,94.25281,26.739Z"/><path d="M73.51349,40.11383a12.6906,12.6906,0,0,1-.26514-2.01324,2.0004,2.0004,0,0,0-.72266-1.4502A12.53536,12.53536,0,0,1,74.304,16.12988a2.00187,2.00187,0,0,0,.90332-1.09131A12.35817,12.35817,0,0,1,86.86865,6.63135a10.48306,10.48306,0,0,0,1.08636.02838,1.95192,1.95192,0,0,0,.91949-.35992,12.28057,12.28057,0,0,1,12.69354-.94727c1.01611.52057,2.468-.03662,3.5625-.03662a12.44375,12.44375,0,0,1,12.05,9.77832,2.00094,2.00094,0,0,0,.90137,1.27393,12.50915,12.50915,0,0,1,0,21.26367,2.00094,2.00094,0,0,0-.90137,1.27393,12.44375,12.44375,0,0,1-12.05,9.77832,12.21359,12.21359,0,0,1-2.28027-.22217,1.99166,1.99166,0,0,0-1.28223.18555,12.15344,12.15344,0,0,1-9.91.54553,2.15663,2.15663,0,0,0-1.61066-.0553,12.18962,12.18962,0,0,1-12.17291-1.853,10.77974,10.77974,0,0,1-.30792,4.59686,16.11608,16.11608,0,0,0,13.21521,1.24683,16.09569,16.09569,0,0,0,11.99823-.623,16.01623,16.01623,0,0,0,2.35059.17871,16.46846,16.46846,0,0,0,15.75806-12.10937,16.51186,16.51186,0,0,0,0-27.14941A16.46846,16.46846,0,0,0,105.13055,1.31592a16.01623,16.01623,0,0,0-2.35059.17871A16.15752,16.15752,0,0,0,87.146,2.63721c-.0918-.00391-.18457-.00586-.27734-.00586A16.3511,16.3511,0,0,0,71.68091,13.04,16.52259,16.52259,0,0,0,68.259,38.07178,10.98764,10.98764,0,0,1,73.51349,40.11383Z"/><path d="M72.57257,44.71436a7.19109,7.19109,0,0,0-10.06165-1.11572L52.1123,52.20575a16.04638,16.04638,0,0,1-5.09454,7.25031h1.88849a1.99951,1.99951,0,0,0,1.27539-.45947s14.85748-12.29791,14.87518-12.3125a3.1628,3.1628,0,0,1,4.3526.479,2.77048,2.77048,0,0,1-.4375,3.87256L50.39258,66.79541a2,2,0,0,0-.70605,1.52539V92H24.31122V68.3208a2,2,0,0,0-.70605-1.52539L5.019,51.03027a2.76834,2.76834,0,0,1-.42975-3.86768,3.1082,3.1082,0,0,1,4.3468-.48291L23.8161,58.99658a1.99951,1.99951,0,0,0,1.27539.45947h1.88843a16.04656,16.04656,0,0,1-5.09454-7.25037L11.47705,43.59033a7.14245,7.14245,0,0,0-10.0509,1.12354,6.78846,6.78846,0,0,0,1.01172,9.37256L20.31116,69.24707V94a1.98667,1.98667,0,0,0,.6875,1.498V121a7.00009,7.00009,0,0,0,14.00018,0V96H38.9989v25a7.00009,7.00009,0,0,0,14.00018,0V95.498A1.98667,1.98667,0,0,0,53.68658,94V69.24707L71.553,54.0918A6.79047,6.79047,0,0,0,72.57257,44.71436ZM30.99878,121a3,3,0,0,1-6.00006,0V96h6.00006ZM48.999,121a3,3,0,0,1-6.00006,0V96H48.999Z"/><path d="M36.99884,59A12,12,0,1,0,24.99872,47,12.01351,12.01351,0,0,0,36.99884,59Zm0-20a8,8,0,1,1-8.00006,8A8.00923,8.00923,0,0,1,36.99884,39Z"/><path d="M34.99884,31a6,6,0,1,0-6.00006-6A6.00657,6.00657,0,0,0,34.99884,31Zm0-8a2,2,0,1,1-2,2A2.00229,2.00229,0,0,1,34.99884,23Z"/><path d="M52.99908,25A8,8,0,1,0,44.999,17,8.00918,8.00918,0,0,0,52.99908,25Zm0-12A4,4,0,1,1,48.999,17,4.00427,4.00427,0,0,1,52.99908,13Z"/><path d="M126,68a2.00011,2.00011,0,0,0-2.00006,2v50a4.00428,4.00428,0,0,1-4.00006,4H69.99927a2,2,0,1,0,0,4h50.00061A8.00923,8.00923,0,0,0,128,120V70A2.0001,2.0001,0,0,0,126,68Z"/><path d="M115.99988,90v26H89.99951a2,2,0,1,0,0,4h26.00037a4.00427,4.00427,0,0,0,4-4V90a2,2,0,0,0-4,0Z"/><text x="0" y="143" fill="#000000" font-size="5px" font-weight="bold" font-family="'Helvetica Neue', Helvetica, Arial-Unicode, Arial, Sans-serif">Created by WEBTECHOPS LLP</text><text x="0" y="148" fill="#000000" font-size="5px" font-weight="bold" font-family="'Helvetica Neue', Helvetica, Arial-Unicode, Arial, Sans-serif">from the Noun Project</text></svg>