<svg height='100px' width='100px'  fill="#848484" xmlns="http://www.w3.org/2000/svg" data-name="Layer 1" viewBox="0 0 128 128" x="0px" y="0px"><title>miscellaneous 111 final</title><path d="M76.00006,12.3335a24.36053,24.36053,0,0,1,24.33282,24.333,2,2,0,0,0,4,0A28.3648,28.3648,0,0,0,76.00006,8.3335a2,2,0,1,0,0,4Z"></path><path d="M37.31671,35.28271a1.51017,1.51017,0,0,1,.94922.75146,2.01689,2.01689,0,0,1-.60547,2.61133L16.08832,52.751a2,2,0,0,0,2.18945,3.34766l7.24072-4.73456L38.2962,70.10352,23.31384,79.93506,8.30322,57.9209a3.44847,3.44847,0,0,1-.54883-2.62842,3.31254,3.31254,0,0,1,.643-1.38531,13.94435,13.94435,0,0,1-4.00208-1.0907,7.36909,7.36909,0,0,0,.60321,7.35736l16.11713,23.6377a1.98842,1.98842,0,0,0,.74463.65411l8.0766,13.97528L15.87152,112.12109a2.00071,2.00071,0,0,0-.35937,2.395l5.19971,9.48334L2.00055,123.999a2,2,0,0,0,0,4L44.00024,128a2.001,2.001,0,0,0,1.834-1.20117l3.1543-7.24121A47.51846,47.51846,0,0,1,69.59515,96.84906l3.24475-1.19525a1.98424,1.98424,0,0,0,1.046-.90314l16.909-7.31952a2.00273,2.00273,0,0,0,1.06738-1.106l2.69336-6.874a47.48832,47.48832,0,0,1,18.65027-22.791l5.38275-3.45557a1.99685,1.99685,0,0,0,.81738-1.05176l8.49115-25.52148a1.99974,1.99974,0,1,0-3.79492-1.2627l-8.26849,24.85156-4.788,3.07373a51.8083,51.8083,0,0,0-7.53473,5.89A35.99053,35.99053,0,1,0,40.189,32.30536a5.36323,5.36323,0,0,0-6.18475-.16083L23.9447,38.722a13.79626,13.79626,0,0,1-.48517,5.0965l12.73413-8.32635A1.41909,1.41909,0,0,1,37.31671,35.28271ZM23.44666,116.81738a3.60252,3.60252,0,0,1,.16895,2.65869,5.05026,5.05026,0,0,1-.33594.88672l-3.52826-6.43555,14.0907-13.70508A2.00091,2.00091,0,0,0,34.179,97.7876L25.71594,83.14331l7.79535-5.11517,8.23993,21.33514a1.63769,1.63769,0,0,1-.63184,1.94287L23.975,114.21875A2.00011,2.00011,0,0,0,23.44666,116.81738ZM45.32056,117.96,42.6897,124l-17.06787-.00043a8.65273,8.65273,0,0,0,1.85217-3.46881,8.12435,8.12435,0,0,0,.10547-4.019l15.89441-11.97266a5.61176,5.61176,0,0,0,2.00977-6.61621l-.001-.00049L40.71674,85.58215l6.60773-2.33069L58.30682,99.3916a1.994,1.994,0,0,0,.29669.33722A51.74236,51.74236,0,0,0,45.32056,117.96Zm22.6347-24.76984-7.22076,2.66L49.76489,79.728a1.99976,1.99976,0,0,0-2.31836-.76123L39.275,81.849l-2.34265-6.06561,2.88287-1.89166,10.63519-2.00647a1.61739,1.61739,0,0,1,1.78027.93848l9.26459,18.47266a2.00254,2.00254,0,0,0,2.45313.98975,6.80268,6.80268,0,0,1,4.53314.62158l.00867.00427C68.31268,93.00586,68.13159,93.09424,67.95526,93.19012ZM76.00006,4A32,32,0,1,1,44.00024,36,32.03622,32.03622,0,0,1,76.00006,4ZM40.42529,41.52789a35.97811,35.97811,0,0,0,59.66882,21.19446A51.8233,51.8233,0,0,0,90.831,77.9917l-2.38965,6.09912L72.61414,90.942a8.91193,8.91193,0,0,0-2.39923-1.63879,11.62054,11.62054,0,0,0-5.8222-1.15283L55.83026,71.08057a5.60125,5.60125,0,0,0-6.122-3.126l-7.11945,1.34326L28.86694,49.17462l10.983-7.18146A5.55309,5.55309,0,0,0,40.42529,41.52789Z"></path><path d="M10,50A10,10,0,1,1,20,40,10.01139,10.01139,0,0,1,10,50Zm0-16.66667a6.67388,6.67388,0,0,0,0,13.33333,6.67388,6.67388,0,0,0,0-13.33333Z"></path></svg>