<svg height='100px' width='100px'  xmlns="http://www.w3.org/2000/svg" xmlns:xlink="http://www.w3.org/1999/xlink" version="1.1" x="0px" y="0px" viewBox="0 0 70 70" style="enable-background:new 0 0 70 70;" xml:space="preserve"><path d="M24.8105469,39.1781616v3.8015137C15.390564,44.6262817,8.2353516,52.3455811,8.2353516,61.6073608v5.3691406  c0,0.5522461,0.4472656,1,1,1h51.5292969c0.5527344,0,1-0.4477539,1-1v-5.3691406  c0-5.9678955-2.9755859-11.2930298-7.6072998-14.7719116c-0.0206299-0.0180664-0.0313721-0.0430298-0.053833-0.0596313  c-0.02948-0.0218506-0.0646973-0.0266724-0.0957031-0.0447998c-2.5266113-1.8625488-5.5311279-3.1767578-8.8173828-3.7512817  v-3.8015747c0-0.5522461-0.4472656-1-1-1h-0.7547607c0.1817627-3.5064697,1.7071533-6.9766235,4.3748779-9.8408203  C50.5,25.4501343,51.9814453,21.7484741,51.9814453,17.914978c0-4.2011719-1.734375-8.1621094-4.8847656-11.1533203  c-3.4179688-3.2470703-8.1630859-4.9707031-13.0585938-4.7128906C25.3251953,2.4989624,18.2919922,9.2514038,18.0273438,17.421814  c-0.1308594,4.0258789,1.3535156,7.909668,4.1806641,10.9350586c2.6573486,2.84375,4.1760864,6.3071899,4.3565674,9.8212891  h-0.7540283C25.2578125,38.1781616,24.8105469,38.6259155,24.8105469,39.1781616z M36.5849609,51.5082397  c0.6328125,2.2055664,0.9335938,3.3349609,0.9658203,5.3188477L35,59.718689l-2.5498047-2.8916016  c0.0322266-1.9882812,0.3330078-3.1162109,0.9658203-5.3183594l0.7353516-2.559082h1.6982422L36.5849609,51.5082397z   M36.9521484,46.949646h-0.3496094h-3.2041016h-0.3496094l-0.8212891-2.3066406h5.5449219L36.9521484,46.949646z   M30.1047974,44.6430054l1.2955933,3.6416016c0.1114502,0.3139648,0.3710938,0.539917,0.6820068,0.6243286l-0.5882568,2.0470581  c-0.7070312,2.4589844-1.046875,3.7514648-1.046875,6.2456055c0,0.2436523,0.0888672,0.4785156,0.25,0.6616211L34.25,61.8920288  c0.1894531,0.2148438,0.4628906,0.3383789,0.75,0.3383789s0.5605469-0.1235352,0.75-0.3383789l3.5537109-4.0288086  c0.1611328-0.1826172,0.25-0.4179688,0.25-0.6616211c0-2.4892578-0.3398438-3.7832031-1.046875-6.2456055l-0.5882568-2.0470581  c0.3109131-0.0844116,0.5705566-0.3103638,0.6820068-0.6243286l1.2947998-3.6416016h1.5499268  c3.9683838,0,7.635376,1.1870728,10.6383057,3.1803589l-5.0904541,6.8728638  c-0.1269531,0.1723633-0.1962891,0.3808594-0.1962891,0.5952148v10.6850586H23.3642578V55.2914429  c0-0.2143555-0.0693359-0.4228516-0.1962891-0.5952148l-5.1455078-6.9459839  c2.9831543-1.9502563,6.6120605-3.1072388,10.5332031-3.1072388H30.1047974z M10.2353516,61.6073608  c0-5.0391235,2.3984985-9.5587158,6.1782837-12.6685791l4.9506226,6.6827393v10.3549805H10.2353516V61.6073608z   M59.7646484,61.6073608v4.3691406H48.796875V55.621521l4.8883667-6.5999146  C57.4072876,52.1288452,59.7646484,56.6124268,59.7646484,61.6073608z M41.4453125,42.6430054h-2.2558594h-8.3789062h-2.2548828  c-0.5890503,0-1.1686401,0.036438-1.7451172,0.0825195v-2.5473633h16.3798828v2.5473633  C42.6139526,42.6794434,42.0343628,42.6430054,41.4453125,42.6430054z M20.0253906,17.4862671  c0.2324219-7.1396484,6.4326172-13.0429688,14.1162109-13.4404297c4.3193359-0.21875,8.5546875,1.2939453,11.578125,4.1660156  c2.7480469,2.6098633,4.2617188,6.0556641,4.2617188,9.703125c0,3.3261719-1.2910156,6.543457-3.6337891,9.059082  c-3.0166016,3.2382812-4.7509766,7.1914062-4.9326172,11.203125H36V27.4869995  c2.8842773-0.4727173,5.0927734-2.9437256,5.0927734-5.9196777c0-3.3129883-2.7333984-6.0083008-6.0927734-6.0083008  s-6.0917969,2.6953125-6.0917969,6.0083008c0,2.9759521,2.2077637,5.4468994,5.0917969,5.9196777v10.6901855h-5.4150391  c-0.1796875-4.0209961-1.9091797-7.9682617-4.9160156-11.1855469  C21.2060547,24.3554077,19.9121094,20.9799194,20.0253906,17.4862671z M35,25.5751343  c-2.2558594,0-4.0917969-1.7978516-4.0917969-4.0078125S32.7441406,17.559021,35,17.559021  c2.2568359,0,4.0927734,1.7983398,4.0927734,4.0083008S37.2568359,25.5751343,35,25.5751343z"></path></svg>