<svg height='100px' width='100px'     xmlns="http://www.w3.org/2000/svg" viewBox="0 0 64 64" x="0px" y="0px"><title>Jealous</title><g><path d="M57.0747,11.8867A14.9144,14.9144,0,0,0,45.1514,6.0156a14.4323,14.4323,0,0,0-12.15,6.4014q-.5231.7777-1,1.5889-.4769-.81-1.002-1.5909A14.4737,14.4737,0,0,0,19.3013,6.0205,15.143,15.143,0,0,0,6.9282,11.8857a14.1049,14.1049,0,0,0-2.9267,8.67,17.5987,17.5987,0,0,0,3.3652,10.05c3.0789,4.3257,7.746,8.9883,13.8537,13.8621a15.9988,15.9988,0,0,0-.2189,2.5178,11,11,0,0,0,22,0,15.9248,15.9248,0,0,0-.21-2.5255c6.1029-4.871,10.767-9.531,13.8447-13.8554C60.9624,24.52,61.1343,17.1719,57.0747,11.8867ZM32.0015,55.9854a9.01,9.01,0,0,1-9-9,18.85,18.85,0,0,1,3.5556-10.2686A10.6541,10.6541,0,0,1,28.0137,41.14a1,1,0,0,0,1.8281.3877c.0957-.1484,2.17-3.4365,2.97-10.4228,2.6924,2.6738,8.19,8.98,8.19,15.8809A9.01,9.01,0,0,1,32.0015,55.9854Zm23.0053-26.54A68.9267,68.9267,0,0,1,42.3019,42.282c-2.2672-7.8194-9.3058-13.77-9.66-14.0652a1,1,0,0,0-1.6377.6992,34.3247,34.3247,0,0,1-1.7075,8.9473A6.574,6.574,0,0,0,26.9673,34.33a1.0009,1.0009,0,0,0-1.3682.251,25.7166,25.7166,0,0,0-3.8951,7.7038A68.9531,68.9531,0,0,1,8.9961,29.4463a15.5863,15.5863,0,0,1-2.9946-8.8906,12.12,12.12,0,0,1,2.5131-7.4522A12.89,12.89,0,0,1,19.2422,8.02a12.4941,12.4941,0,0,1,10.1,5.5147A28.7817,28.7817,0,0,1,31.11,16.54a1.041,1.041,0,0,0,1.7822-.0009A28.8052,28.8052,0,0,1,34.66,13.5352a12.4592,12.4592,0,0,1,10.4917-5.52,12.93,12.93,0,0,1,10.3369,5.0889C59.0015,17.6777,58.812,24.0928,55.0068,29.4453Zm-23.8051,12.94c-.1309.1739-3.2,4.3038-3.2,7.6a4,4,0,0,0,8,0c0-3.2959-3.0694-7.4258-3.2-7.6A1.0353,1.0353,0,0,0,31.2017,42.3857Zm.8,9.6a2.0023,2.0023,0,0,1-2-2c0-1.6153,1.1089-3.7784,2.0005-5.2139.8916,1.4336,1.9995,3.5937,1.9995,5.2139A2.0023,2.0023,0,0,1,32.0015,51.9854Z"></path></g></svg>