<svg height='100px' width='100px'  xmlns="http://www.w3.org/2000/svg" xml:space="preserve" version="1.1" style="shape-rendering:geometricPrecision;text-rendering:geometricPrecision;image-rendering:optimizeQuality;" viewBox="0 0 260 260" x="0px" y="0px" fill-rule="evenodd" clip-rule="evenodd"><defs><style type="text/css">

  </style></defs><g><path class="fil0" d="M63 242c-11,25 -63,22 -63,-10l0 -127c0,-27 50,-30 62,-10 23,-11 49,-28 46,-57 -6,-54 41,-48 56,3 6,19 3,33 -3,50l73 0c29,0 34,35 15,47 11,12 7,34 -9,43 9,12 3,36 -11,42 6,14 -2,34 -29,36 -45,2 -95,1 -137,-17zm-31 -26c6,0 10,4 10,10 0,5 -4,10 -10,10 -5,0 -9,-5 -9,-10 0,-6 4,-10 9,-10zm33 16c40,18 90,19 135,17 27,-1 26,-27 10,-27 -5,0 -9,0 -14,0 -5,0 -7,-6 0,-6 9,0 17,0 25,0 13,-2 22,-34 0,-34 -5,0 -12,0 -17,0 -7,0 -7,-8 0,-8 7,0 15,0 22,0 22,0 28,-33 4,-33l-19 0c-7,0 -7,-8 0,-8 8,0 15,0 23,0 22,-1 22,-32 0,-33l-87 0c8,-21 15,-35 8,-56 -12,-38 -42,-49 -37,-7 3,34 -24,54 -53,68l0 127z"></path></g></svg>