<svg height='100px' width='100px' xmlns="http://www.w3.org/2000/svg" version="1.1" viewBox="-0.922 -0.55 80 76" enable-background="new -0.922 -0.55 80 76" xml:space="preserve" x="0px" y="0px"><path d="M78.146,57.386c-0.004-0.043-0.014-0.083-0.027-0.123c-0.01-0.025-0.018-0.049-0.03-0.072  c-0.021-0.039-0.05-0.071-0.081-0.104c-0.013-0.014-0.02-0.032-0.034-0.044c-0.006-0.005-0.013-0.005-0.019-0.01  c-0.036-0.027-0.079-0.045-0.123-0.062c-0.023-0.009-0.043-0.022-0.066-0.027c-0.004-0.001-0.008-0.004-0.012-0.005l-10.076-2.016  v-7.116c0-0.016-0.009-0.028-0.01-0.044c-0.004-0.043-0.014-0.083-0.027-0.123c-0.01-0.025-0.018-0.049-0.03-0.072  c-0.021-0.039-0.05-0.071-0.081-0.104c-0.013-0.014-0.02-0.032-0.034-0.044c-0.006-0.005-0.013-0.005-0.019-0.009  c-0.036-0.028-0.079-0.045-0.123-0.063c-0.023-0.009-0.043-0.021-0.066-0.027c-0.004-0.001-0.008-0.004-0.012-0.005l-8.646-1.729  V39.33c0-0.149-0.067-0.292-0.183-0.387c-0.064-0.053-0.141-0.083-0.221-0.099l0.001-0.005l-9.172-1.835  c2.519-3.685,2.876-9.59,2.646-12.216c-0.546-6.221-5.636-11.028-5.345-15.289c0.093-1.353-0.159-1.332-0.91,0  c-0.752,1.333-0.947,4.032-0.435,6c0.513,1.968,0.522,4.193,0.022,4.945c-0.501,0.751-2.915,1.323-5.933-5.911  c-1.752-4.2-2.326-8.582-1.131-11.941c1.26-3.54,0.323-3.378-1.069,0.019c-1.401,3.419-3.06,7.985-1.445,13.6  c2.873,9.988-5.061,9.302-4.178,3.945c0.296-1.8,0.323-4.096-0.657-5.898c-0.935-1.719-1.929-2.624-1.076-0.024  c0.494,1.506-0.519,5.137-1.778,8.289c-2.626,6.573-0.876,11.497,1.44,14.462l-9.278,1.855l0.001,0.005  c-0.08,0.016-0.156,0.046-0.22,0.099c-0.116,0.095-0.183,0.237-0.183,0.387v6.259l-8.648,1.729  c-0.004,0.001-0.007,0.004-0.012,0.005c-0.022,0.005-0.042,0.019-0.063,0.026c-0.045,0.017-0.089,0.035-0.126,0.063  c-0.006,0.004-0.013,0.005-0.018,0.009c-0.014,0.012-0.021,0.03-0.034,0.043c-0.031,0.032-0.06,0.065-0.082,0.104  c-0.013,0.023-0.021,0.048-0.031,0.073c-0.014,0.04-0.023,0.079-0.027,0.121c-0.001,0.016-0.01,0.029-0.01,0.045v7.116L0.402,56.94  c-0.004,0.001-0.007,0.004-0.012,0.005c-0.022,0.005-0.042,0.019-0.063,0.026c-0.045,0.017-0.089,0.035-0.126,0.063  c-0.006,0.004-0.013,0.005-0.018,0.009c-0.014,0.012-0.021,0.029-0.034,0.043c-0.031,0.032-0.06,0.065-0.082,0.104  c-0.013,0.023-0.021,0.048-0.031,0.073c-0.014,0.039-0.023,0.079-0.027,0.121C0.009,57.401,0,57.415,0,57.43v9.332  c0,0.238,0.168,0.443,0.402,0.49l38.578,7.717c0.033,0.007,0.065-0.002,0.098-0.002s0.065,0.009,0.098,0.002l38.578-7.717  c0.234-0.047,0.402-0.252,0.402-0.49V57.43C78.156,57.415,78.147,57.402,78.146,57.386z M29.953,37.854  c0.271,0.288,0.542,0.552,0.812,0.788l-1.308,0.262c-0.117,0.023-0.201,0.126-0.201,0.245s0.084,0.222,0.201,0.245l3.732,0.746  c0.067,0.021,0.134,0.038,0.195,0.051c0.749,0.149,1.728,0.383,2.817,0.552l2.828,0.565c0.032,0.007,0.065,0.007,0.098,0  l9.572-1.914c0.117-0.023,0.201-0.126,0.201-0.245s-0.084-0.222-0.201-0.245l-1.143-0.229c0.288-0.24,0.559-0.504,0.811-0.788  l7.213,1.442L39.078,42.63L22.577,39.33L29.953,37.854z M57.629,39.939v6.601l-18.051,3.611V43.55L57.629,39.939z M20.527,39.94  l18.051,3.61v6.601L20.527,46.54V39.94z M19.527,46.608v0.342c0,0.238,0.168,0.443,0.402,0.49L38.98,51.25  c0.033,0.007,0.065-0.002,0.098-0.002s0.065,0.009,0.098,0.002l19.05-3.811c0.234-0.047,0.402-0.252,0.402-0.49v-0.342l6,1.2  l-25.551,5.11l-25.551-5.11L19.527,46.608z M66.678,48.417v7.648l-27.1,5.421v-7.648L66.678,48.417z M11.478,48.418l27.101,5.42  v7.648l-27.101-5.421V48.418z M38.578,73.87L1,66.352V58.04l37.578,7.517V73.87z M39.078,64.636L3.049,57.43l7.428-1.486v0.532  c0,0.238,0.168,0.443,0.402,0.49l28.101,5.62c0.033,0.007,0.065-0.002,0.098-0.002s0.065,0.009,0.098,0.002l28.099-5.62  c0.234-0.047,0.402-0.252,0.402-0.49v-0.532l7.43,1.486L39.078,64.636z M77.156,66.352L39.578,73.87v-8.313l37.578-7.517V66.352z"></path></svg>