<svg height='100px' width='100px' xmlns="http://www.w3.org/2000/svg" version="1.1" x="0px" y="0px" viewBox="0 0 100 100" enable-background="new 0 0 100 100" xml:space="preserve"><g><path display="none"    d="M50,20c-16.569,0-30,13.431-30,30c0,16.569,13.431,30,30,30   c16.569,0,30-13.431,30-30C80,33.431,66.569,20,50,20z M50,77c-14.888,0-27-12.112-27-27c0-14.888,12.112-27,27-27s27,12.112,27,27   C77,64.888,64.888,77,50,77z M50,26c-13.255,0-24,10.745-24,24c0,13.255,10.745,24,24,24s24-10.745,24-24   C74,36.745,63.255,26,50,26z M50,71c-11.579,0-21-9.421-21-21s9.421-21,21-21s21,9.421,21,21S61.579,71,50,71z M50,32   c-9.941,0-18,8.059-18,18s8.059,18,18,18s18-8.059,18-18S59.941,32,50,32z M50,65c-8.271,0-15-6.729-15-15s6.729-15,15-15   s15,6.729,15,15S58.271,65,50,65z"></path><path display="none"    d="M86,50c0-13.255-10.745-24-23.999-24C56.986,22.233,50.754,20,44,20   c-16.569,0-30,13.431-30,30c0,16.569,13.431,30,30,30c6.754,0,12.986-2.233,18-6C75.255,74,86,63.255,86,50z M60.977,70.974   c-4.171-0.201-8.024-1.628-11.213-3.923C56.877,64.647,62,57.924,62,50s-5.123-14.647-12.235-17.051   c3.189-2.295,7.042-3.722,11.213-3.923C67.086,33.98,71,41.54,71,50C71,58.46,67.086,66.02,60.977,70.974z M41,50   c0-5.717,2.299-10.905,6.017-14.695C53.847,36.705,59,42.762,59,50s-5.153,13.295-11.983,14.695C43.299,60.905,41,55.717,41,50z    M43.256,64.981C35.329,64.592,29,58.022,29,50s6.329-14.592,14.256-14.981C39.97,39.125,38,44.331,38,50   C38,55.669,39.97,60.875,43.256,64.981z M17,50c0-14.888,12.112-27,27-27c4.804,0,9.316,1.267,13.228,3.476   c-4.259,0.859-8.108,2.848-11.225,5.638C45.345,32.041,44.677,32,44,32c-9.941,0-18,8.059-18,18s8.059,18,18,18   c0.677,0,1.345-0.041,2.003-0.114c3.117,2.79,6.966,4.778,11.225,5.638C53.316,75.733,48.804,77,44,77C29.112,77,17,64.888,17,50z    M65.741,70.66C70.855,65.279,74,58.009,74,50s-3.145-15.279-8.259-20.66C75.541,31.111,83,39.698,83,50   S75.541,68.889,65.741,70.66z"></path><path display="none"    d="M20,20v60h60V20H20z M77,77H23V23h54V77z M74,26H26v48h48V26z M71,71H29   V29h42V71z M50,68c9.941,0,18-8.059,18-18s-8.059-18-18-18s-18,8.059-18,18S40.059,68,50,68z M50,35c8.271,0,15,6.729,15,15   s-6.729,15-15,15s-15-6.729-15-15S41.729,35,50,35z"></path><path    d="M70.1,48.2L63.5,35l-6,12L44,20L14,80h27h13.2H74h12L70.1,48.2z M63.5,41.708l4.923,9.846   L64.1,60.2l-4.923-9.846L63.5,41.708z M18.854,77L44,26.708l11.823,23.646L42.5,77H18.854z M45.854,77L57.5,53.708l4.923,9.846   L55.7,77H45.854z M59.054,77L64.1,66.908L69.146,77H59.054z M72.5,77l-6.723-13.446l4.323-8.646L81.146,77H72.5z"></path></g></svg>