<svg height='100px' width='100px'     version="1.1" x="0px" y="0px" viewBox="0 0 100 100" style="enable-background:new 0 0 100 100;" xml:space="preserve"><g><g><path class="st0" d="M96,48.2c-0.8-1-20.8-25.5-46-25.5c-25.3,0-45.2,24.5-46,25.5L2.5,50L4,51.8c0.8,1,20.8,25.5,46,25.5     c25.3,0,45.2-24.5,46-25.5l1.5-1.8L96,48.2z M10,50c3.4-3.7,11.9-12.2,22.8-17.4c-4.5,4.4-7.3,10.6-7.3,17.4     c0,6.8,2.8,12.9,7.2,17.3C21.9,62.2,13.4,53.7,10,50z M50,68.1C40,68.1,31.9,60,31.9,50c0-10,8.1-18.1,18.1-18.1     c10,0,18.1,8.1,18.1,18.1C68.2,60,60,68.1,50,68.1z M67.2,67.4c4.5-4.4,7.3-10.6,7.3-17.4c0-6.8-2.8-12.9-7.2-17.3     C78.1,37.8,86.6,46.3,90,50C86.6,53.7,78.1,62.2,67.2,67.4z"></path><circle class="st0" cx="50" cy="50" r="9.1"></circle></g></g></svg>