<svg height='100px' width='100px'     xmlns="http://www.w3.org/2000/svg" version="1.1" x="0px" y="0px" viewBox="0 0 100 100" enable-background="new 0 0 100 100" xmlSpace="preserve"><path d="M93.821,36.48c-1.14-0.494-2.43-0.745-3.835-0.745c-2.477,0-4.945,0.787-6.843,2.09c2.514-5.51,5.335-9.281,7.905-10.502  l-0.833-1.756c-1.929,0.916-3.805,2.881-5.532,5.456c-0.309-3.43-2.224-6.996-4.97-8.688l-1.093-0.674l-0.352,1.234  c-1.139,3.996,0.842,9.347,4.263,11.779c-1.361,2.61-2.576,5.541-3.589,8.519c-1.737-0.558-3.428-1.446-3.428-2.309  c0-2.585-3.996-6.42-9.518-6.42c-6.144,0-9.837,3.547-12.001,7.078c-0.595-4.138-2.229-6.193-3.822-8.188  c-2.495-3.122-4.851-6.071-3.235-17.861l0.262-1.917l-1.694,0.934c-4.831,2.663-10.843,11.419-10.633,20.29  c-0.364-0.179-0.727-0.356-1.09-0.534c-7.304-3.57-14.204-6.942-19.356-16.094l-1.475-2.618l-0.338,2.986  c-0.937,8.266-0.191,17.132,2.047,24.327c2.357,7.574,6.306,13.215,11.532,16.54c-5.581,0.617-14.349,3.183-20.481,8.736  l-0.246,0.223l-0.059,0.326c-0.764,4.282,3.013,15.087,7.37,16.83l0.606,0.242l0.454-0.47c2.146-2.224,8.381-7.998,11.871-8.52  c6.059,1.933,11.516,2.912,16.222,2.912c15.804,0,20.295-11.002,21.567-17.566c1.558-8.335,9.9-13.332,14.358-15.446  c-1.198,4.231-1.931,8.344-2.013,11.552l1.944,0.049c0.032-1.282,0.188-2.742,0.435-4.301c1.032,0.4,2.229,0.619,3.499,0.619  c3.475,0,6.933-1.487,8.808-3.788l0.812-0.996l-1.179-0.51c-1.139-0.494-2.429-0.744-3.832-0.744c-2.816,0-5.622,1.018-7.586,2.657  c0.385-1.799,0.885-3.676,1.464-5.555c0.281-0.108,0.448-0.167,0.464-0.172l3.461-1.171l-3.288-0.645  c0.293-0.86,0.604-1.715,0.93-2.558c1.055,0.427,2.293,0.659,3.605,0.659c3.474,0,6.931-1.486,8.808-3.786L95,36.991L93.821,36.48z   M36.873,35.795c-0.632-7.327,3.771-14.97,7.877-18.4c-1.139,10.859,1.423,14.066,3.906,17.173  c1.849,2.315,3.597,4.502,3.632,10.344c-0.246,0.631-0.443,1.213-0.598,1.718c-0.024-0.027-0.049-0.052-0.073-0.08  c-0.294-0.328-0.589-0.648-0.885-0.959c-0.194-0.203-0.389-0.397-0.583-0.593c-0.127-0.128-0.254-0.259-0.382-0.384  c-0.225-0.221-0.451-0.434-0.677-0.646c-0.094-0.088-0.188-0.177-0.283-0.263c-0.247-0.227-0.494-0.448-0.742-0.665  c-0.065-0.057-0.131-0.113-0.196-0.17c-0.27-0.233-0.541-0.462-0.812-0.684c-0.018-0.015-0.036-0.029-0.055-0.044  c-0.882-0.719-1.771-1.384-2.666-2.003c-0.048-0.033-0.097-0.068-0.145-0.102c-0.215-0.147-0.43-0.291-0.646-0.433  c-0.145-0.097-0.29-0.193-0.435-0.287c-0.172-0.111-0.345-0.221-0.518-0.33c-0.205-0.129-0.408-0.255-0.612-0.379  c-0.128-0.078-0.256-0.157-0.384-0.233c-0.297-0.179-0.594-0.353-0.889-0.522c-0.042-0.024-0.085-0.05-0.128-0.075  c-0.727-0.416-1.446-0.808-2.155-1.181c-0.097-0.051-0.193-0.101-0.29-0.152c-0.247-0.129-0.493-0.256-0.737-0.381  c-0.13-0.066-0.259-0.133-0.389-0.199C36.963,35.841,36.917,35.817,36.873,35.795z M61.589,61.758  c-1.413,7.293-5.971,15.985-19.658,15.985c-4.557,0-9.883-0.97-15.831-2.884l-0.191-0.062l-0.2,0.02  c-4.257,0.411-10.77,6.617-12.754,8.604c-2.918-1.993-6.072-10.369-5.678-14.068c6.996-6.154,17.406-8.153,21.404-8.153  c0.497,0,0.931,0.029,1.255,0.082l8.785,1.456l-8.264-3.316c-12.671-5.086-17.159-22.571-16.17-37.763  c5.224,7.797,11.76,10.992,18.643,14.355c0.725,0.354,1.452,0.71,2.181,1.073l0.414,0.208c0.403,0.202,0.812,0.41,1.224,0.623  c0.279,0.144,0.558,0.289,0.837,0.437c0.067,0.035,0.134,0.072,0.202,0.108c0.326,0.174,0.652,0.35,0.978,0.53  c0.051,0.028,0.103,0.057,0.154,0.085c0.339,0.189,0.679,0.382,1.018,0.579c0.045,0.027,0.091,0.053,0.137,0.08  c0.345,0.202,0.689,0.409,1.033,0.621c0.042,0.026,0.083,0.05,0.125,0.076c0.374,0.232,0.747,0.469,1.118,0.714  c0.009,0.006,0.019,0.012,0.028,0.018c0.365,0.241,0.729,0.49,1.092,0.745c0.167,0.118,0.334,0.242,0.501,0.363  c0.186,0.135,0.372,0.269,0.557,0.408c0.211,0.159,0.422,0.324,0.633,0.489c0.141,0.11,0.281,0.22,0.422,0.332  c0.221,0.178,0.442,0.362,0.663,0.548c0.133,0.112,0.266,0.225,0.398,0.339c0.22,0.19,0.439,0.384,0.658,0.582  c0.137,0.124,0.274,0.251,0.411,0.378c0.209,0.195,0.418,0.392,0.627,0.595c0.156,0.152,0.312,0.31,0.467,0.467  c0.188,0.188,0.375,0.376,0.561,0.572c0.197,0.207,0.392,0.422,0.587,0.637c0.146,0.16,0.292,0.315,0.437,0.479  c0.342,0.39,0.683,0.79,1.021,1.206l1.336,1.644v0l0.003,0.003l0.347-1.941l0.026-0.147c0.003-0.015,0.273-1.491,1.04-3.403  l0.07-0.174v-0.054c1.511-3.68,4.857-8.82,11.765-8.82c4.556,0,7.574,3.185,7.574,4.477c0,1.917,1.999,3.128,3.828,3.836  C72.722,46.851,63.37,52.227,61.589,61.758z M86.33,50.5c0.547,0,1.079,0.048,1.583,0.142c-1.608,1.235-3.92,2.008-6.191,2.008  c-0.531,0-1.044-0.044-1.527-0.129C81.802,51.278,84.094,50.5,86.33,50.5z M79.895,24.953c1.819,1.824,2.988,4.829,2.878,7.405  C80.921,30.528,79.764,27.551,79.895,24.953z M85.38,39.829c-0.53,0-1.043-0.043-1.525-0.129c1.604-1.242,3.896-2.021,6.132-2.021  c0.548,0,1.08,0.049,1.584,0.142C89.962,39.055,87.65,39.829,85.38,39.829z"></path></svg>