<svg height='100px' width='100px' xmlns="http://www.w3.org/2000/svg" data-name="Layer 1" viewBox="0 0 64 64" x="0px" y="0px"><title>Business Icon Set</title><path d="M54.83,17,40,2.17A4,4,0,0,0,37.17,1H12A4,4,0,0,0,8,5V59a4,4,0,0,0,4,4H52a4,4,0,0,0,4-4V19.83A4,4,0,0,0,54.83,17ZM40,7.83,49.17,17H40ZM12,59V5H36V17a4,4,0,0,0,4,4H52V59Z"></path><path d="M47,30H31a2,2,0,0,0,0,4H47a2,2,0,0,0,0-4Z"></path><path d="M22.17,27,19,30.17,18.83,30A2,2,0,0,0,16,32.83l2.29,2.29a1,1,0,0,0,1.42,0L25,29.83A2,2,0,0,0,22.17,27Z"></path><path d="M47,46H31a2,2,0,0,0,0,4H47a2,2,0,0,0,0-4Z"></path><path d="M22.17,43,19,46.17,18.83,46A2,2,0,0,0,16,48.83l2.29,2.29a1,1,0,0,0,1.42,0L25,45.83A2,2,0,0,0,22.17,43Z"></path></svg>