<svg height='100px' width='100px'     xmlns="http://www.w3.org/2000/svg" version="1.1" x="0px" y="0px" viewBox="0 0 24 24" style="enable-background:new 0 0 24 24;" xmlSpace="preserve"><g><path d="M15.275,14.609c0.338-1.716,0.512-3.481,0.512-5.249V9.145h-1.491c-0.237,0-0.43-0.193-0.43-0.431V7.439   c0-1.173-0.838-2.127-1.868-2.127s-1.868,0.954-1.868,2.127v1.275c0,0.237-0.193,0.431-0.43,0.431h-1.49V9.36   c0,1.767,0.174,3.532,0.512,5.249H15.275z"></path><path d="M15.38,15.471H8.616c-0.518,0-0.939,0.42-0.939,0.938c0,0.518,0.421,0.939,0.939,0.939h6.764   c0.517,0,0.939-0.421,0.939-0.939C16.318,15.891,15.897,15.471,15.38,15.471z"></path><path d="M11.15,2.833c0.467-0.089,1.061-0.126,1.709-0.005c0.011-0.101,0.022-0.201,0.066-0.29l0.337-1.056l-1.265-1.273   l-1.272,1.272l0.369,1.114C11.121,2.639,11.14,2.731,11.15,2.833z"></path><path d="M19.887,23.389c-0.453-0.522-0.734-1.062-0.835-1.604c-0.135-0.714-0.122-1.425-0.109-2.112   c0.007-0.353,0.014-0.707-0.001-1.059c-0.015-0.378,0.112-0.654,0.413-0.892c0.712-0.562,0.934-1.469,0.553-2.255   c-0.113-0.229-0.27-0.405-0.454-0.531l0.003-9.766c0.274-0.154,0.468-0.436,0.468-0.773c0-0.496-0.403-0.899-0.899-0.899   s-0.899,0.403-0.899,0.899c0,0.338,0.195,0.621,0.47,0.774l-0.001,2.691h-2.346c-0.237,0-0.43-0.193-0.43-0.431   c0-1.545-0.921-2.929-2.346-3.528c-0.006-0.003-0.013-0.001-0.019-0.004c-1.445-0.668-2.896-0.007-2.909-0.001   c-0.006,0.003-0.013,0.002-0.02,0.005c0,0-0.001,0-0.001,0.001C9.101,4.499,8.179,5.885,8.179,7.432   c0,0.237-0.193,0.431-0.43,0.431H5.621V5.171C5.896,5.017,6.09,4.735,6.09,4.398c0-0.496-0.403-0.899-0.899-0.899   S4.291,3.902,4.291,4.398c0,0.337,0.194,0.62,0.469,0.773v9.655c-0.278,0.113-0.513,0.317-0.657,0.608   c-0.397,0.819-0.175,1.725,0.536,2.287c0.302,0.239,0.429,0.514,0.414,0.892c-0.015,0.353-0.008,0.708-0.002,1.062   c0.013,0.686,0.026,1.395-0.109,2.11c-0.101,0.541-0.382,1.081-0.835,1.603c-0.179,0.207-0.197,0.282-0.199,0.292   c0.001-0.007,0.009,0.022,0.103,0.11h3.512c0.023-0.065,0.045-0.164,0.047-0.243c0.003-0.077,0.009-0.208,0.044-0.346   c0-0.008-0.004-0.014-0.004-0.022v-0.923c0-0.856,0.683-1.553,1.524-1.553h5.714c0.846,0,1.534,0.697,1.534,1.553v0.923   c0,0.031-0.011,0.058-0.017,0.086c0.019,0.074,0.047,0.134,0.055,0.227c0.015,0.156,0.042,0.24,0.087,0.297h3.474   c0.087-0.083,0.103-0.121,0.105-0.126C20.088,23.666,20.081,23.614,19.887,23.389z M17.577,15.518l-0.409,1.005   c-0.06,0.939-0.834,1.687-1.788,1.687H8.616c-0.954,0-1.729-0.749-1.789-1.689l-0.408-1.003c-0.15-0.368-0.438-0.624-0.797-0.732   v-0.864c0.714,0.128,1.314,0.583,1.595,1.272l0.027,0.065c0.172-0.206,0.386-0.374,0.633-0.487   c-0.348-1.772-0.527-3.591-0.527-5.413V8.714c0-0.237,0.193-0.431,0.43-0.431h1.49V7.439c0-1.648,1.224-2.988,2.729-2.988   s2.729,1.341,2.729,2.988v0.844h1.491c0.237,0,0.43,0.193,0.43,0.431V9.36c0,1.823-0.179,3.642-0.528,5.413   c0.247,0.112,0.46,0.281,0.633,0.487l0.027-0.066c0.31-0.76,1.001-1.25,1.813-1.311l0,0.866   C18.133,14.805,17.755,15.08,17.577,15.518z"></path><path d="M14.85,21.567H9.136c-0.366,0-0.664,0.31-0.664,0.691v0.395c2.35,0.008,4.701,0.008,7.051,0v-0.395   C15.523,21.877,15.221,21.567,14.85,21.567z"></path></g></svg>